%TF.GenerationSoftware,KiCad,Pcbnew,9.0.8*%
%TF.CreationDate,2026-04-02T18:25:13+01:00*%
%TF.ProjectId,ESP32_Falcon,45535033-325f-4466-916c-636f6e2e6b69,rev?*%
%TF.SameCoordinates,Original*%
%TF.FileFunction,Copper,L2,Bot*%
%TF.FilePolarity,Positive*%
%FSLAX46Y46*%
G04 Gerber Fmt 4.6, Leading zero omitted, Abs format (unit mm)*
G04 Created by KiCad (PCBNEW 9.0.8) date 2026-04-02 18:25:13*
%MOMM*%
%LPD*%
G01*
G04 APERTURE LIST*
%TA.AperFunction,ComponentPad*%
%ADD10R,1.700000X1.700000*%
%TD*%
%TA.AperFunction,ComponentPad*%
%ADD11C,1.700000*%
%TD*%
%TA.AperFunction,HeatsinkPad*%
%ADD12O,1.000000X2.100000*%
%TD*%
%TA.AperFunction,HeatsinkPad*%
%ADD13O,1.000000X1.600000*%
%TD*%
%TA.AperFunction,HeatsinkPad*%
%ADD14C,0.600000*%
%TD*%
%TA.AperFunction,ViaPad*%
%ADD15C,0.600000*%
%TD*%
%TA.AperFunction,ViaPad*%
%ADD16C,0.500000*%
%TD*%
%TA.AperFunction,Conductor*%
%ADD17C,0.200000*%
%TD*%
%TA.AperFunction,Conductor*%
%ADD18C,0.500000*%
%TD*%
G04 APERTURE END LIST*
D10*
%TO.P,J2,1,Pin_1*%
%TO.N,+5V*%
X117000000Y-43500000D03*
D11*
%TO.P,J2,2,Pin_2*%
%TO.N,+3V3*%
X117000000Y-46040000D03*
%TO.P,J2,3,Pin_3*%
%TO.N,GND*%
X117000000Y-48580000D03*
%TO.P,J2,4,Pin_4*%
%TO.N,GPIO4*%
X117000000Y-51120000D03*
%TO.P,J2,5,Pin_5*%
%TO.N,GPIO5*%
X117000000Y-53660000D03*
%TO.P,J2,6,Pin_6*%
%TO.N,GPIO6*%
X117000000Y-56200000D03*
%TO.P,J2,7,Pin_7*%
%TO.N,GPIO7*%
X117000000Y-58740000D03*
%TO.P,J2,8,Pin_8*%
%TO.N,GPIO12*%
X117000000Y-61280000D03*
%TO.P,J2,9,Pin_9*%
%TO.N,GPIO17*%
X117000000Y-63820000D03*
%TO.P,J2,10,Pin_10*%
%TO.N,GND*%
X117000000Y-66360000D03*
%TO.P,J2,11,Pin_11*%
%TO.N,GPIO18*%
X117000000Y-68900000D03*
%TO.P,J2,12,Pin_12*%
%TO.N,unconnected-(J2-Pin_12-Pad12)*%
X117000000Y-71440000D03*
%TO.P,J2,13,Pin_13*%
%TO.N,GPIO23*%
X117000000Y-73980000D03*
%TO.P,J2,14,Pin_14*%
%TO.N,GPIO22*%
X117000000Y-76520000D03*
%TO.P,J2,15,Pin_15*%
%TO.N,GPIO21*%
X117000000Y-79060000D03*
%TD*%
D10*
%TO.P,J3,1,Pin_1*%
%TO.N,GPIO25*%
X161000000Y-43500000D03*
D11*
%TO.P,J3,2,Pin_2*%
%TO.N,GPIO24*%
X161000000Y-46040000D03*
%TO.P,J3,3,Pin_3*%
%TO.N,GPIO16*%
X161000000Y-48580000D03*
%TO.P,J3,4,Pin_4*%
%TO.N,GPIO26*%
X161000000Y-51120000D03*
%TO.P,J3,5,Pin_5*%
%TO.N,GPIO35*%
X161000000Y-53660000D03*
%TO.P,J3,6,Pin_6*%
%TO.N,GPIO34*%
X161000000Y-56200000D03*
%TO.P,J3,7,Pin_7*%
%TO.N,GPIO11*%
X161000000Y-58740000D03*
%TO.P,J3,8,Pin_8*%
%TO.N,GPIO10*%
X161000000Y-61280000D03*
%TO.P,J3,9,Pin_9*%
%TO.N,TX*%
X161000000Y-63820000D03*
%TO.P,J3,10,Pin_10*%
%TO.N,RX*%
X161000000Y-66360000D03*
%TO.P,J3,11,Pin_11*%
%TO.N,SCL*%
X161000000Y-68900000D03*
%TO.P,J3,12,Pin_12*%
%TO.N,SDA*%
X161000000Y-71440000D03*
%TO.P,J3,13,Pin_13*%
%TO.N,GND*%
X161000000Y-73980000D03*
%TO.P,J3,14,Pin_14*%
%TO.N,+3V3*%
X161000000Y-76520000D03*
%TO.P,J3,15,Pin_15*%
%TO.N,+5V*%
X161000000Y-79060000D03*
%TD*%
D12*
%TO.P,J1,S1,SHIELD*%
%TO.N,GND*%
X134680000Y-94895000D03*
D13*
X134680000Y-99075000D03*
D12*
X143320000Y-94895000D03*
D13*
X143320000Y-99075000D03*
%TD*%
D14*
%TO.P,U1,41,GND*%
%TO.N,GND*%
X136200000Y-49900000D03*
X136200000Y-51300000D03*
X136900000Y-49200000D03*
X136900000Y-50600000D03*
X136900000Y-52000000D03*
X137600000Y-49900000D03*
X137600000Y-51300000D03*
X138300000Y-49200000D03*
X138300000Y-50600000D03*
X138300000Y-52000000D03*
X139000000Y-49900000D03*
X139000000Y-51300000D03*
%TD*%
D15*
%TO.N,GND*%
X151500000Y-89000000D03*
X140000000Y-90000000D03*
X130000000Y-100500000D03*
X146500000Y-100500000D03*
X154500000Y-100500000D03*
X139500000Y-75000000D03*
X146500000Y-83000000D03*
X146500000Y-89000000D03*
X131500000Y-94500000D03*
X146000000Y-94000000D03*
X142000000Y-67500000D03*
%TO.N,Net-(U1-IO0)*%
X155500000Y-66000000D03*
X155325735Y-62325735D03*
X151000000Y-62000000D03*
X150000000Y-59500000D03*
%TO.N,GND*%
X121500000Y-61500000D03*
X135000000Y-56000000D03*
X139500000Y-67500000D03*
X121500000Y-67500000D03*
X146500000Y-72500000D03*
X119500000Y-47000000D03*
X161500000Y-91000000D03*
X161500000Y-96000000D03*
X121500000Y-47000000D03*
X157500000Y-44500000D03*
X142000000Y-56000000D03*
X152000000Y-75000000D03*
X126500000Y-43000000D03*
X141500000Y-73000000D03*
X123500000Y-80000000D03*
X154000000Y-75000000D03*
X127000000Y-68000000D03*
X158500000Y-93000000D03*
X142000000Y-44500000D03*
X159000000Y-88500000D03*
X128500000Y-78000000D03*
X157500000Y-75500000D03*
X158500000Y-98500000D03*
X136000000Y-44500000D03*
X121500000Y-60000000D03*
X124500000Y-43500000D03*
X126500000Y-64000000D03*
X155500000Y-44000000D03*
X153500000Y-44000000D03*
D16*
%TO.N,+3V3*%
X133000000Y-79000000D03*
D15*
X129750000Y-86750000D03*
X131750000Y-84750000D03*
D16*
X147500000Y-77000000D03*
%TO.N,+5V*%
X136000000Y-83500000D03*
D15*
X138000000Y-90500000D03*
D16*
X123500000Y-49000000D03*
X139500000Y-83000000D03*
%TO.N,Net-(U1-EN)*%
X126000000Y-88500000D03*
X126000000Y-69500000D03*
D15*
%TO.N,Net-(D1-A)*%
X130250000Y-79750000D03*
X132250000Y-79750000D03*
D16*
%TO.N,Net-(J1-CC1)*%
X142000000Y-82500000D03*
X139000000Y-85500000D03*
D15*
%TO.N,GPIO11*%
X133963500Y-67364973D03*
%TO.N,GPIO10*%
X133125000Y-67375000D03*
%TO.N,GPIO34*%
X155500000Y-54500000D03*
X156500000Y-55500000D03*
%TO.N,GPIO35*%
X155000000Y-53000000D03*
X157734265Y-55234265D03*
%TO.N,SCL*%
X129050000Y-53550000D03*
X135000000Y-64000000D03*
%TO.N,SDA*%
X151000000Y-64000000D03*
X135585384Y-64736854D03*
X144000000Y-64000000D03*
X128550000Y-52050000D03*
%TO.N,GPIO16*%
X158500000Y-57500000D03*
%TO.N,GPIO24*%
X154500000Y-57500000D03*
%TO.N,GPIO18*%
X137250000Y-63000000D03*
X135715533Y-67743107D03*
X135750000Y-70000000D03*
D16*
%TO.N,GPIO7*%
X126000000Y-52500000D03*
X121500000Y-57000000D03*
D15*
%TO.N,GPIO6*%
X122750000Y-54750000D03*
D16*
X126000000Y-51500000D03*
D15*
%TO.N,GPIO4*%
X126000000Y-49000000D03*
X135500000Y-66000000D03*
%TO.N,GPIO22*%
X140000000Y-63000000D03*
X137500000Y-67900000D03*
X139500000Y-79500000D03*
%TO.N,GPIO21*%
X127000000Y-85500000D03*
X136000000Y-76500000D03*
X139000000Y-63000000D03*
X136500000Y-67900000D03*
D16*
%TO.N,GPIO12*%
X127450000Y-57000000D03*
X122500000Y-57000000D03*
%TO.N,GPIO17*%
X121000000Y-63740000D03*
D15*
X136000000Y-62000000D03*
D16*
%TO.N,GPIO5*%
X122500000Y-49500000D03*
X128000000Y-48000000D03*
D15*
%TO.N,USER_LED*%
X152000000Y-65000000D03*
X151000000Y-45500000D03*
%TD*%
D17*
%TO.N,GND*%
X145105000Y-94895000D02*
X146000000Y-94000000D01*
X143320000Y-94895000D02*
X145105000Y-94895000D01*
%TO.N,Net-(U1-IO0)*%
X155500000Y-62500000D02*
X155500000Y-66000000D01*
X151000000Y-60500000D02*
X151000000Y-62000000D01*
X150000000Y-59500000D02*
X151000000Y-60500000D01*
X155325735Y-62325735D02*
X155500000Y-62500000D01*
D18*
%TO.N,+3V3*%
X133000000Y-79000000D02*
X138500000Y-79000000D01*
X131750000Y-84750000D02*
X129750000Y-86750000D01*
X140500000Y-77000000D02*
X147500000Y-77000000D01*
X138500000Y-79000000D02*
X140500000Y-77000000D01*
%TO.N,+5V*%
X123500000Y-45500000D02*
X121500000Y-43500000D01*
X117000000Y-43420000D02*
X121420000Y-43420000D01*
X138000000Y-90500000D02*
X140000000Y-92500000D01*
X139500000Y-83000000D02*
X136500000Y-83000000D01*
X136500000Y-83000000D02*
X136000000Y-83500000D01*
X121420000Y-43420000D02*
X121500000Y-43500000D01*
X154000000Y-86060000D02*
X161000000Y-79060000D01*
X140000000Y-92500000D02*
X151000000Y-92500000D01*
X123500000Y-49000000D02*
X123500000Y-45500000D01*
X154000000Y-89500000D02*
X154000000Y-86060000D01*
X151000000Y-92500000D02*
X154000000Y-89500000D01*
D17*
%TO.N,Net-(U1-EN)*%
X126000000Y-69500000D02*
X126000000Y-88500000D01*
%TO.N,Net-(D1-A)*%
X130250000Y-79750000D02*
X132250000Y-79750000D01*
%TO.N,Net-(J1-CC1)*%
X139000000Y-85500000D02*
X142000000Y-82500000D01*
%TO.N,GPIO11*%
X133963500Y-67364973D02*
X135098527Y-68500000D01*
X154434314Y-68500000D02*
X158467157Y-64467157D01*
X158467157Y-61272843D02*
X161000000Y-58740000D01*
X158467157Y-64467157D02*
X158467157Y-61272843D01*
X135098527Y-68500000D02*
X154434314Y-68500000D01*
%TO.N,GPIO10*%
X133125000Y-67375000D02*
X134750000Y-69000000D01*
X159000000Y-63280000D02*
X161000000Y-61280000D01*
X154500000Y-69000000D02*
X159000000Y-64500000D01*
X134750000Y-69000000D02*
X154500000Y-69000000D01*
X159000000Y-64500000D02*
X159000000Y-63280000D01*
%TO.N,GPIO34*%
X156500000Y-55500000D02*
X155500000Y-54500000D01*
%TO.N,GPIO35*%
X157234265Y-55234265D02*
X155000000Y-53000000D01*
X157734265Y-55234265D02*
X157234265Y-55234265D01*
%TO.N,SCL*%
X129000000Y-53600000D02*
X129000000Y-61934314D01*
X129050000Y-53550000D02*
X129000000Y-53600000D01*
X129000000Y-61934314D02*
X131065686Y-64000000D01*
X131065686Y-64000000D02*
X135000000Y-64000000D01*
%TO.N,SDA*%
X129736854Y-64736854D02*
X128450000Y-63450000D01*
X144000000Y-64000000D02*
X151000000Y-64000000D01*
X135585384Y-64736854D02*
X129736854Y-64736854D01*
X128450000Y-52150000D02*
X128550000Y-52050000D01*
X128450000Y-63450000D02*
X128450000Y-52150000D01*
%TO.N,GPIO16*%
X158500000Y-51080000D02*
X161000000Y-48580000D01*
X158500000Y-57500000D02*
X158500000Y-51080000D01*
%TO.N,GPIO24*%
X154500000Y-57500000D02*
X154400000Y-57400000D01*
X154400000Y-57400000D02*
X154400000Y-52640000D01*
X154400000Y-52640000D02*
X161000000Y-46040000D01*
%TO.N,GPIO18*%
X132750000Y-70750000D02*
X130900000Y-68900000D01*
X135750000Y-70500000D02*
X135500000Y-70750000D01*
X130900000Y-68900000D02*
X117000000Y-68900000D01*
X137250000Y-63000000D02*
X137250000Y-66208640D01*
X135750000Y-70000000D02*
X135750000Y-70500000D01*
X137250000Y-66208640D02*
X135715533Y-67743107D01*
X135500000Y-70750000D02*
X132750000Y-70750000D01*
%TO.N,GPIO7*%
X126000000Y-52500000D02*
X121500000Y-57000000D01*
%TO.N,GPIO6*%
X123000000Y-54500000D02*
X126000000Y-51500000D01*
X122750000Y-54750000D02*
X123000000Y-54500000D01*
%TO.N,GPIO4*%
X126000000Y-50500000D02*
X126000000Y-49000000D01*
X135500000Y-66000000D02*
X128000000Y-66000000D01*
X126000000Y-50500000D02*
X125460000Y-51040000D01*
X128000000Y-66000000D02*
X128000000Y-52500000D01*
X128000000Y-52500000D02*
X126000000Y-50500000D01*
X125460000Y-51040000D02*
X117000000Y-51040000D01*
%TO.N,GPIO22*%
X119500000Y-82777818D02*
X119500000Y-79000000D01*
X140000000Y-63000000D02*
X140000000Y-65400000D01*
X119500000Y-79000000D02*
X119480000Y-79000000D01*
X119480000Y-79000000D02*
X117000000Y-76520000D01*
X139500000Y-79500000D02*
X139222183Y-79500000D01*
X140000000Y-65400000D02*
X137500000Y-67900000D01*
X139222183Y-79500000D02*
X129672183Y-89050000D01*
X125772182Y-89050000D02*
X119500000Y-82777818D01*
X129672183Y-89050000D02*
X125772182Y-89050000D01*
%TO.N,GPIO21*%
X139000000Y-65400000D02*
X136500000Y-67900000D01*
X135000000Y-77500000D02*
X130500000Y-77500000D01*
X136000000Y-76500000D02*
X135000000Y-77500000D01*
X127000000Y-81000000D02*
X127000000Y-85500000D01*
X130500000Y-77500000D02*
X127000000Y-81000000D01*
X139000000Y-63000000D02*
X139000000Y-65400000D01*
%TO.N,GPIO12*%
X122500000Y-57000000D02*
X127450000Y-57000000D01*
%TO.N,GPIO17*%
X121240000Y-63500000D02*
X123000000Y-63500000D01*
X121000000Y-63740000D02*
X121240000Y-63500000D01*
X135748529Y-66600000D02*
X136500000Y-65848529D01*
X136500000Y-65848529D02*
X136500000Y-62500000D01*
X126100000Y-66600000D02*
X135748529Y-66600000D01*
X123000000Y-63500000D02*
X126100000Y-66600000D01*
X136500000Y-62500000D02*
X136000000Y-62000000D01*
%TO.N,GPIO5*%
X122500000Y-49500000D02*
X122550000Y-49550000D01*
X122550000Y-49550000D02*
X124601471Y-49550000D01*
X126151471Y-48000000D02*
X128000000Y-48000000D01*
X124601471Y-49550000D02*
X126151471Y-48000000D01*
%TO.N,USER_LED*%
X152000000Y-65000000D02*
X152000000Y-46500000D01*
X152000000Y-46500000D02*
X151000000Y-45500000D01*
%TD*%
%TA.AperFunction,Conductor*%
%TO.N,GND*%
G36*
X125200171Y-69520185D02*
G01*
X125245926Y-69572989D01*
X125254749Y-69600308D01*
X125278340Y-69718907D01*
X125278343Y-69718917D01*
X125334912Y-69855488D01*
X125334919Y-69855501D01*
X125378602Y-69920876D01*
X125399480Y-69987553D01*
X125399500Y-69989767D01*
X125399500Y-87528721D01*
X125379815Y-87595760D01*
X125327011Y-87641515D01*
X125257853Y-87651459D01*
X125194297Y-87622434D01*
X125187819Y-87616402D01*
X120136819Y-82565402D01*
X120103334Y-82504079D01*
X120100500Y-82477721D01*
X120100500Y-78920945D01*
X120100500Y-78920943D01*
X120059577Y-78768216D01*
X120054170Y-78758851D01*
X119980524Y-78631290D01*
X119980518Y-78631282D01*
X119868717Y-78519481D01*
X119868716Y-78519480D01*
X119835531Y-78500321D01*
X119809849Y-78480614D01*
X118333757Y-77004522D01*
X118300272Y-76943199D01*
X118303507Y-76878523D01*
X118317246Y-76836243D01*
X118350500Y-76626287D01*
X118350500Y-76413713D01*
X118317246Y-76203757D01*
X118251557Y-76001588D01*
X118155051Y-75812184D01*
X118155049Y-75812181D01*
X118155048Y-75812179D01*
X118030109Y-75640213D01*
X117879786Y-75489890D01*
X117707820Y-75364951D01*
X117707115Y-75364591D01*
X117699054Y-75360485D01*
X117648259Y-75312512D01*
X117631463Y-75244692D01*
X117653999Y-75178556D01*
X117699054Y-75139515D01*
X117707816Y-75135051D01*
X117762572Y-75095269D01*
X117879786Y-75010109D01*
X117879788Y-75010106D01*
X117879792Y-75010104D01*
X118030104Y-74859792D01*
X118030106Y-74859788D01*
X118030109Y-74859786D01*
X118155048Y-74687820D01*
X118155047Y-74687820D01*
X118155051Y-74687816D01*
X118251557Y-74498412D01*
X118317246Y-74296243D01*
X118350500Y-74086287D01*
X118350500Y-73873713D01*
X118317246Y-73663757D01*
X118251557Y-73461588D01*
X118155051Y-73272184D01*
X118155049Y-73272181D01*
X118155048Y-73272179D01*
X118030109Y-73100213D01*
X117879786Y-72949890D01*
X117707820Y-72824951D01*
X117699600Y-72820763D01*
X117699054Y-72820485D01*
X117648259Y-72772512D01*
X117631463Y-72704692D01*
X117653999Y-72638556D01*
X117699054Y-72599515D01*
X117707816Y-72595051D01*
X117729789Y-72579086D01*
X117879786Y-72470109D01*
X117879788Y-72470106D01*
X117879792Y-72470104D01*
X118030104Y-72319792D01*
X118030106Y-72319788D01*
X118030109Y-72319786D01*
X118155048Y-72147820D01*
X118155047Y-72147820D01*
X118155051Y-72147816D01*
X118251557Y-71958412D01*
X118317246Y-71756243D01*
X118350500Y-71546287D01*
X118350500Y-71333713D01*
X118317246Y-71123757D01*
X118251557Y-70921588D01*
X118155051Y-70732184D01*
X118155049Y-70732181D01*
X118155048Y-70732179D01*
X118030109Y-70560213D01*
X117879786Y-70409890D01*
X117707820Y-70284951D01*
X117707115Y-70284591D01*
X117699054Y-70280485D01*
X117648259Y-70232512D01*
X117631463Y-70164692D01*
X117653999Y-70098556D01*
X117699054Y-70059515D01*
X117707816Y-70055051D01*
X117748490Y-70025500D01*
X117879786Y-69930109D01*
X117879788Y-69930106D01*
X117879792Y-69930104D01*
X118030104Y-69779792D01*
X118030106Y-69779788D01*
X118030109Y-69779786D01*
X118146064Y-69620185D01*
X118155051Y-69607816D01*
X118158877Y-69600308D01*
X118175235Y-69568205D01*
X118223209Y-69517409D01*
X118285719Y-69500500D01*
X125133132Y-69500500D01*
X125200171Y-69520185D01*
G37*
%TD.AperFunction*%
%TA.AperFunction,Conductor*%
G36*
X124777941Y-51660185D02*
G01*
X124823696Y-51712989D01*
X124833640Y-51782147D01*
X124804615Y-51845703D01*
X124798583Y-51852181D01*
X122735339Y-53915425D01*
X122674016Y-53948910D01*
X122671850Y-53949361D01*
X122516508Y-53980261D01*
X122516498Y-53980264D01*
X122370827Y-54040602D01*
X122370814Y-54040609D01*
X122239711Y-54128210D01*
X122239707Y-54128213D01*
X122128213Y-54239707D01*
X122128210Y-54239711D01*
X122040609Y-54370814D01*
X122040602Y-54370827D01*
X121980264Y-54516498D01*
X121980261Y-54516510D01*
X121949500Y-54671153D01*
X121949500Y-54828846D01*
X121980261Y-54983489D01*
X121980264Y-54983501D01*
X122040602Y-55129172D01*
X122040609Y-55129185D01*
X122128210Y-55260288D01*
X122128213Y-55260292D01*
X122171661Y-55303740D01*
X122205146Y-55365063D01*
X122200162Y-55434755D01*
X122171661Y-55479102D01*
X121421699Y-56229064D01*
X121360376Y-56262549D01*
X121358210Y-56263000D01*
X121281092Y-56278340D01*
X121281084Y-56278342D01*
X121144511Y-56334912D01*
X121144498Y-56334919D01*
X121021584Y-56417048D01*
X121021580Y-56417051D01*
X120917051Y-56521580D01*
X120917048Y-56521584D01*
X120834919Y-56644498D01*
X120834912Y-56644511D01*
X120778343Y-56781082D01*
X120778340Y-56781092D01*
X120749500Y-56926079D01*
X120749500Y-56926082D01*
X120749500Y-57073918D01*
X120749500Y-57073920D01*
X120749499Y-57073920D01*
X120778340Y-57218907D01*
X120778343Y-57218917D01*
X120834912Y-57355488D01*
X120834919Y-57355501D01*
X120917048Y-57478415D01*
X120917051Y-57478419D01*
X121021580Y-57582948D01*
X121021584Y-57582951D01*
X121144498Y-57665080D01*
X121144511Y-57665087D01*
X121252676Y-57709890D01*
X121281087Y-57721658D01*
X121281091Y-57721658D01*
X121281092Y-57721659D01*
X121426079Y-57750500D01*
X121426082Y-57750500D01*
X121573920Y-57750500D01*
X121671462Y-57731096D01*
X121718913Y-57721658D01*
X121855495Y-57665084D01*
X121931111Y-57614559D01*
X121997786Y-57593682D01*
X122065166Y-57612166D01*
X122068848Y-57614531D01*
X122144505Y-57665084D01*
X122144507Y-57665085D01*
X122144511Y-57665087D01*
X122252676Y-57709890D01*
X122281087Y-57721658D01*
X122281091Y-57721658D01*
X122281092Y-57721659D01*
X122426079Y-57750500D01*
X122426082Y-57750500D01*
X122573920Y-57750500D01*
X122671462Y-57731096D01*
X122718913Y-57721658D01*
X122855495Y-57665084D01*
X122920876Y-57621398D01*
X122987553Y-57600520D01*
X122989767Y-57600500D01*
X126960233Y-57600500D01*
X127027272Y-57620185D01*
X127029124Y-57621398D01*
X127094498Y-57665080D01*
X127094511Y-57665087D01*
X127202676Y-57709890D01*
X127231087Y-57721658D01*
X127231091Y-57721658D01*
X127231092Y-57721659D01*
X127299692Y-57735305D01*
X127361603Y-57767690D01*
X127396177Y-57828406D01*
X127399500Y-57856922D01*
X127399500Y-65875500D01*
X127379815Y-65942539D01*
X127327011Y-65988294D01*
X127275500Y-65999500D01*
X126400097Y-65999500D01*
X126333058Y-65979815D01*
X126312416Y-65963181D01*
X123487590Y-63138355D01*
X123487588Y-63138352D01*
X123368717Y-63019481D01*
X123368709Y-63019475D01*
X123250514Y-62951236D01*
X123250511Y-62951235D01*
X123244085Y-62947525D01*
X123231785Y-62940423D01*
X123079057Y-62899499D01*
X122920943Y-62899499D01*
X122913347Y-62899499D01*
X122913331Y-62899500D01*
X121160942Y-62899500D01*
X121008213Y-62940423D01*
X120989488Y-62951235D01*
X120989486Y-62951236D01*
X120939428Y-62980136D01*
X120901622Y-62994365D01*
X120781092Y-63018340D01*
X120781082Y-63018343D01*
X120644511Y-63074912D01*
X120644498Y-63074919D01*
X120521584Y-63157048D01*
X120521580Y-63157051D01*
X120417051Y-63261580D01*
X120417048Y-63261584D01*
X120334919Y-63384498D01*
X120334912Y-63384511D01*
X120278343Y-63521082D01*
X120278340Y-63521092D01*
X120249500Y-63666079D01*
X120249500Y-63666082D01*
X120249500Y-63813918D01*
X120249500Y-63813920D01*
X120249499Y-63813920D01*
X120278340Y-63958907D01*
X120278343Y-63958917D01*
X120334912Y-64095488D01*
X120334919Y-64095501D01*
X120417048Y-64218415D01*
X120417051Y-64218419D01*
X120521580Y-64322948D01*
X120521584Y-64322951D01*
X120644498Y-64405080D01*
X120644511Y-64405087D01*
X120733191Y-64441819D01*
X120781087Y-64461658D01*
X120781091Y-64461658D01*
X120781092Y-64461659D01*
X120926079Y-64490500D01*
X120926082Y-64490500D01*
X121073920Y-64490500D01*
X121184909Y-64468422D01*
X121218913Y-64461658D01*
X121355495Y-64405084D01*
X121478416Y-64322951D01*
X121582951Y-64218416D01*
X121624917Y-64155608D01*
X121678528Y-64110804D01*
X121728019Y-64100500D01*
X122699903Y-64100500D01*
X122766942Y-64120185D01*
X122787584Y-64136819D01*
X125615139Y-66964374D01*
X125615149Y-66964385D01*
X125619479Y-66968715D01*
X125619480Y-66968716D01*
X125731284Y-67080520D01*
X125801949Y-67121318D01*
X125868215Y-67159577D01*
X126020943Y-67200501D01*
X126020946Y-67200501D01*
X126186653Y-67200501D01*
X126186669Y-67200500D01*
X132200500Y-67200500D01*
X132267539Y-67220185D01*
X132313294Y-67272989D01*
X132324500Y-67324500D01*
X132324500Y-67453846D01*
X132355261Y-67608489D01*
X132355264Y-67608501D01*
X132415602Y-67754172D01*
X132415609Y-67754185D01*
X132503210Y-67885288D01*
X132503213Y-67885292D01*
X132614707Y-67996786D01*
X132614711Y-67996789D01*
X132745814Y-68084390D01*
X132745827Y-68084397D01*
X132891498Y-68144735D01*
X132891503Y-68144737D01*
X132956147Y-68157595D01*
X133046849Y-68175638D01*
X133108760Y-68208023D01*
X133110339Y-68209574D01*
X134265139Y-69364374D01*
X134265149Y-69364385D01*
X134269479Y-69368715D01*
X134269480Y-69368716D01*
X134381284Y-69480520D01*
X134449988Y-69520185D01*
X134468095Y-69530639D01*
X134468097Y-69530641D01*
X134506151Y-69552611D01*
X134518215Y-69559577D01*
X134670943Y-69600501D01*
X134670946Y-69600501D01*
X134836653Y-69600501D01*
X134836669Y-69600500D01*
X134863445Y-69600500D01*
X134930484Y-69620185D01*
X134976239Y-69672989D01*
X134986183Y-69742147D01*
X134981159Y-69760411D01*
X134982031Y-69760676D01*
X134980261Y-69766510D01*
X134949500Y-69921153D01*
X134949500Y-70025500D01*
X134929815Y-70092539D01*
X134877011Y-70138294D01*
X134825500Y-70149500D01*
X133050097Y-70149500D01*
X132983058Y-70129815D01*
X132962416Y-70113181D01*
X131387590Y-68538355D01*
X131387588Y-68538352D01*
X131268717Y-68419481D01*
X131268716Y-68419480D01*
X131174173Y-68364896D01*
X131131785Y-68340423D01*
X130979057Y-68299499D01*
X130820943Y-68299499D01*
X130813347Y-68299499D01*
X130813331Y-68299500D01*
X118285719Y-68299500D01*
X118218680Y-68279815D01*
X118175235Y-68231795D01*
X118155052Y-68192185D01*
X118155051Y-68192184D01*
X118030109Y-68020213D01*
X117879786Y-67869890D01*
X117707817Y-67744949D01*
X117698504Y-67740204D01*
X117647707Y-67692230D01*
X117630912Y-67624409D01*
X117653449Y-67558274D01*
X117698507Y-67519232D01*
X117707555Y-67514622D01*
X117761716Y-67475270D01*
X117761717Y-67475270D01*
X117129408Y-66842962D01*
X117192993Y-66825925D01*
X117307007Y-66760099D01*
X117400099Y-66667007D01*
X117465925Y-66552993D01*
X117482962Y-66489409D01*
X118115270Y-67121717D01*
X118115270Y-67121716D01*
X118154622Y-67067554D01*
X118251095Y-66878217D01*
X118316757Y-66676130D01*
X118316757Y-66676127D01*
X118350000Y-66466246D01*
X118350000Y-66253753D01*
X118316757Y-66043872D01*
X118316757Y-66043869D01*
X118251095Y-65841782D01*
X118154624Y-65652449D01*
X118115270Y-65598282D01*
X118115269Y-65598282D01*
X117482962Y-66230590D01*
X117465925Y-66167007D01*
X117400099Y-66052993D01*
X117307007Y-65959901D01*
X117192993Y-65894075D01*
X117129409Y-65877037D01*
X117761716Y-65244728D01*
X117707547Y-65205373D01*
X117707547Y-65205372D01*
X117698500Y-65200763D01*
X117647706Y-65152788D01*
X117630912Y-65084966D01*
X117653451Y-65018832D01*
X117698508Y-64979793D01*
X117707816Y-64975051D01*
X117787007Y-64917515D01*
X117879786Y-64850109D01*
X117879788Y-64850106D01*
X117879792Y-64850104D01*
X118030104Y-64699792D01*
X118030106Y-64699788D01*
X118030109Y-64699786D01*
X118155048Y-64527820D01*
X118155050Y-64527817D01*
X118155051Y-64527816D01*
X118251557Y-64338412D01*
X118317246Y-64136243D01*
X118350500Y-63926287D01*
X118350500Y-63713713D01*
X118317246Y-63503757D01*
X118251557Y-63301588D01*
X118155051Y-63112184D01*
X118155049Y-63112181D01*
X118155048Y-63112179D01*
X118030109Y-62940213D01*
X117879786Y-62789890D01*
X117707820Y-62664951D01*
X117707115Y-62664591D01*
X117699054Y-62660485D01*
X117648259Y-62612512D01*
X117631463Y-62544692D01*
X117653999Y-62478556D01*
X117699054Y-62439515D01*
X117707816Y-62435051D01*
X117749755Y-62404581D01*
X117879786Y-62310109D01*
X117879788Y-62310106D01*
X117879792Y-62310104D01*
X118030104Y-62159792D01*
X118030106Y-62159788D01*
X118030109Y-62159786D01*
X118155048Y-61987820D01*
X118155047Y-61987820D01*
X118155051Y-61987816D01*
X118251557Y-61798412D01*
X118317246Y-61596243D01*
X118350500Y-61386287D01*
X118350500Y-61173713D01*
X118317246Y-60963757D01*
X118251557Y-60761588D01*
X118155051Y-60572184D01*
X118155049Y-60572181D01*
X118155048Y-60572179D01*
X118030109Y-60400213D01*
X117879786Y-60249890D01*
X117707820Y-60124951D01*
X117701608Y-60121786D01*
X117699054Y-60120485D01*
X117648259Y-60072512D01*
X117631463Y-60004692D01*
X117653999Y-59938556D01*
X117699054Y-59899515D01*
X117707816Y-59895051D01*
X117813950Y-59817941D01*
X117879786Y-59770109D01*
X117879788Y-59770106D01*
X117879792Y-59770104D01*
X118030104Y-59619792D01*
X118030106Y-59619788D01*
X118030109Y-59619786D01*
X118155048Y-59447820D01*
X118155047Y-59447820D01*
X118155051Y-59447816D01*
X118251557Y-59258412D01*
X118317246Y-59056243D01*
X118350500Y-58846287D01*
X118350500Y-58633713D01*
X118317246Y-58423757D01*
X118251557Y-58221588D01*
X118155051Y-58032184D01*
X118155049Y-58032181D01*
X118155048Y-58032179D01*
X118030109Y-57860213D01*
X117879786Y-57709890D01*
X117707820Y-57584951D01*
X117707115Y-57584591D01*
X117699054Y-57580485D01*
X117648259Y-57532512D01*
X117631463Y-57464692D01*
X117653999Y-57398556D01*
X117699054Y-57359515D01*
X117707816Y-57355051D01*
X117729789Y-57339086D01*
X117879786Y-57230109D01*
X117879788Y-57230106D01*
X117879792Y-57230104D01*
X118030104Y-57079792D01*
X118030106Y-57079788D01*
X118030109Y-57079786D01*
X118155048Y-56907820D01*
X118155047Y-56907820D01*
X118155051Y-56907816D01*
X118251557Y-56718412D01*
X118317246Y-56516243D01*
X118350500Y-56306287D01*
X118350500Y-56093713D01*
X118317246Y-55883757D01*
X118251557Y-55681588D01*
X118155051Y-55492184D01*
X118155049Y-55492181D01*
X118155048Y-55492179D01*
X118030109Y-55320213D01*
X117879786Y-55169890D01*
X117707820Y-55044951D01*
X117707115Y-55044591D01*
X117699054Y-55040485D01*
X117648259Y-54992512D01*
X117631463Y-54924692D01*
X117653999Y-54858556D01*
X117699054Y-54819515D01*
X117707816Y-54815051D01*
X117729789Y-54799086D01*
X117879786Y-54690109D01*
X117879788Y-54690106D01*
X117879792Y-54690104D01*
X118030104Y-54539792D01*
X118030106Y-54539788D01*
X118030109Y-54539786D01*
X118155048Y-54367820D01*
X118155047Y-54367820D01*
X118155051Y-54367816D01*
X118251557Y-54178412D01*
X118317246Y-53976243D01*
X118350500Y-53766287D01*
X118350500Y-53553713D01*
X118317246Y-53343757D01*
X118251557Y-53141588D01*
X118155051Y-52952184D01*
X118155049Y-52952181D01*
X118155048Y-52952179D01*
X118030109Y-52780213D01*
X117879786Y-52629890D01*
X117707820Y-52504951D01*
X117707115Y-52504591D01*
X117699054Y-52500485D01*
X117648259Y-52452512D01*
X117631463Y-52384692D01*
X117653999Y-52318556D01*
X117699054Y-52279515D01*
X117707816Y-52275051D01*
X117729789Y-52259086D01*
X117879786Y-52150109D01*
X117879788Y-52150106D01*
X117879792Y-52150104D01*
X118030104Y-51999792D01*
X118030106Y-51999788D01*
X118030109Y-51999786D01*
X118084899Y-51924371D01*
X118155051Y-51827816D01*
X118215996Y-51708205D01*
X118263971Y-51657409D01*
X118326481Y-51640500D01*
X124710902Y-51640500D01*
X124777941Y-51660185D01*
G37*
%TD.AperFunction*%
%TA.AperFunction,Conductor*%
G36*
X121124809Y-44190185D02*
G01*
X121145451Y-44206819D01*
X122713181Y-45774548D01*
X122746666Y-45835871D01*
X122749500Y-45862229D01*
X122749500Y-48633330D01*
X122729815Y-48700369D01*
X122677011Y-48746124D01*
X122607853Y-48756068D01*
X122601311Y-48754948D01*
X122573919Y-48749500D01*
X122573918Y-48749500D01*
X122426082Y-48749500D01*
X122426080Y-48749500D01*
X122281092Y-48778340D01*
X122281082Y-48778343D01*
X122144511Y-48834912D01*
X122144498Y-48834919D01*
X122021584Y-48917048D01*
X122021580Y-48917051D01*
X121917051Y-49021580D01*
X121917048Y-49021584D01*
X121834919Y-49144498D01*
X121834912Y-49144511D01*
X121778343Y-49281082D01*
X121778340Y-49281092D01*
X121749500Y-49426079D01*
X121749500Y-49426082D01*
X121749500Y-49573918D01*
X121749500Y-49573920D01*
X121749499Y-49573920D01*
X121778340Y-49718907D01*
X121778343Y-49718917D01*
X121834912Y-49855488D01*
X121834919Y-49855501D01*
X121917048Y-49978415D01*
X121917051Y-49978419D01*
X122021580Y-50082948D01*
X122021584Y-50082951D01*
X122144498Y-50165080D01*
X122144511Y-50165087D01*
X122231066Y-50200939D01*
X122285470Y-50244780D01*
X122307535Y-50311074D01*
X122290256Y-50378773D01*
X122239119Y-50426384D01*
X122183614Y-50439500D01*
X118238078Y-50439500D01*
X118171039Y-50419815D01*
X118137762Y-50388388D01*
X118030104Y-50240208D01*
X117879792Y-50089896D01*
X117879786Y-50089890D01*
X117707817Y-49964949D01*
X117698504Y-49960204D01*
X117647707Y-49912230D01*
X117630912Y-49844409D01*
X117653449Y-49778274D01*
X117698507Y-49739232D01*
X117707555Y-49734622D01*
X117761716Y-49695270D01*
X117761717Y-49695270D01*
X117129408Y-49062962D01*
X117192993Y-49045925D01*
X117307007Y-48980099D01*
X117400099Y-48887007D01*
X117465925Y-48772993D01*
X117482962Y-48709409D01*
X118115270Y-49341717D01*
X118115270Y-49341716D01*
X118154622Y-49287554D01*
X118251095Y-49098217D01*
X118316757Y-48896130D01*
X118316757Y-48896127D01*
X118350000Y-48686246D01*
X118350000Y-48473753D01*
X118316757Y-48263872D01*
X118316757Y-48263869D01*
X118251095Y-48061782D01*
X118154624Y-47872449D01*
X118115270Y-47818282D01*
X118115269Y-47818282D01*
X117482962Y-48450590D01*
X117465925Y-48387007D01*
X117400099Y-48272993D01*
X117307007Y-48179901D01*
X117192993Y-48114075D01*
X117129409Y-48097037D01*
X117761716Y-47464728D01*
X117707547Y-47425373D01*
X117707547Y-47425372D01*
X117698500Y-47420763D01*
X117647706Y-47372788D01*
X117630912Y-47304966D01*
X117653451Y-47238832D01*
X117698508Y-47199793D01*
X117707816Y-47195051D01*
X117787007Y-47137515D01*
X117879786Y-47070109D01*
X117879788Y-47070106D01*
X117879792Y-47070104D01*
X118030104Y-46919792D01*
X118030106Y-46919788D01*
X118030109Y-46919786D01*
X118155048Y-46747820D01*
X118155047Y-46747820D01*
X118155051Y-46747816D01*
X118251557Y-46558412D01*
X118317246Y-46356243D01*
X118350500Y-46146287D01*
X118350500Y-45933713D01*
X118317246Y-45723757D01*
X118251557Y-45521588D01*
X118155051Y-45332184D01*
X118155049Y-45332181D01*
X118155048Y-45332179D01*
X118030109Y-45160213D01*
X117916569Y-45046673D01*
X117883084Y-44985350D01*
X117888068Y-44915658D01*
X117929940Y-44859725D01*
X117960915Y-44842810D01*
X118092331Y-44793796D01*
X118207546Y-44707546D01*
X118293796Y-44592331D01*
X118344091Y-44457483D01*
X118350500Y-44397873D01*
X118350500Y-44294500D01*
X118370185Y-44227461D01*
X118422989Y-44181706D01*
X118474500Y-44170500D01*
X121057770Y-44170500D01*
X121124809Y-44190185D01*
G37*
%TD.AperFunction*%
%TA.AperFunction,Conductor*%
G36*
X163442539Y-41520185D02*
G01*
X163488294Y-41572989D01*
X163499500Y-41624500D01*
X163499500Y-101375500D01*
X163479815Y-101442539D01*
X163427011Y-101488294D01*
X163375500Y-101499500D01*
X114624500Y-101499500D01*
X114557461Y-101479815D01*
X114511706Y-101427011D01*
X114500500Y-101375500D01*
X114500500Y-98676504D01*
X133680000Y-98676504D01*
X133680000Y-98825000D01*
X134380000Y-98825000D01*
X134380000Y-99325000D01*
X133680000Y-99325000D01*
X133680000Y-99473495D01*
X133718427Y-99666681D01*
X133718430Y-99666693D01*
X133793807Y-99848671D01*
X133793814Y-99848684D01*
X133903248Y-100012462D01*
X133903251Y-100012466D01*
X134042533Y-100151748D01*
X134042537Y-100151751D01*
X134206315Y-100261185D01*
X134206328Y-100261192D01*
X134388308Y-100336569D01*
X134430000Y-100344862D01*
X134430000Y-99541988D01*
X134439940Y-99559205D01*
X134495795Y-99615060D01*
X134564204Y-99654556D01*
X134640504Y-99675000D01*
X134719496Y-99675000D01*
X134795796Y-99654556D01*
X134864205Y-99615060D01*
X134920060Y-99559205D01*
X134930000Y-99541988D01*
X134930000Y-100344862D01*
X134971690Y-100336569D01*
X134971692Y-100336569D01*
X135153671Y-100261192D01*
X135153684Y-100261185D01*
X135317462Y-100151751D01*
X135317466Y-100151748D01*
X135456748Y-100012466D01*
X135456751Y-100012462D01*
X135566185Y-99848684D01*
X135566192Y-99848671D01*
X135641569Y-99666693D01*
X135641572Y-99666681D01*
X135679999Y-99473495D01*
X135680000Y-99473492D01*
X135680000Y-99325000D01*
X134980000Y-99325000D01*
X134980000Y-98825000D01*
X135680000Y-98825000D01*
X135680000Y-98676508D01*
X135679999Y-98676504D01*
X142320000Y-98676504D01*
X142320000Y-98825000D01*
X143020000Y-98825000D01*
X143020000Y-99325000D01*
X142320000Y-99325000D01*
X142320000Y-99473495D01*
X142358427Y-99666681D01*
X142358430Y-99666693D01*
X142433807Y-99848671D01*
X142433814Y-99848684D01*
X142543248Y-100012462D01*
X142543251Y-100012466D01*
X142682533Y-100151748D01*
X142682537Y-100151751D01*
X142846315Y-100261185D01*
X142846328Y-100261192D01*
X143028308Y-100336569D01*
X143070000Y-100344862D01*
X143070000Y-99541988D01*
X143079940Y-99559205D01*
X143135795Y-99615060D01*
X143204204Y-99654556D01*
X143280504Y-99675000D01*
X143359496Y-99675000D01*
X143435796Y-99654556D01*
X143504205Y-99615060D01*
X143560060Y-99559205D01*
X143570000Y-99541988D01*
X143570000Y-100344862D01*
X143611690Y-100336569D01*
X143611692Y-100336569D01*
X143793671Y-100261192D01*
X143793684Y-100261185D01*
X143957462Y-100151751D01*
X143957466Y-100151748D01*
X144096748Y-100012466D01*
X144096751Y-100012462D01*
X144206185Y-99848684D01*
X144206192Y-99848671D01*
X144281569Y-99666693D01*
X144281572Y-99666681D01*
X144319999Y-99473495D01*
X144320000Y-99473492D01*
X144320000Y-99325000D01*
X143620000Y-99325000D01*
X143620000Y-98825000D01*
X144320000Y-98825000D01*
X144320000Y-98676508D01*
X144319999Y-98676504D01*
X144281572Y-98483318D01*
X144281569Y-98483306D01*
X144206192Y-98301328D01*
X144206185Y-98301315D01*
X144096751Y-98137537D01*
X144096748Y-98137533D01*
X143957466Y-97998251D01*
X143957462Y-97998248D01*
X143793684Y-97888814D01*
X143793671Y-97888807D01*
X143611691Y-97813429D01*
X143611683Y-97813427D01*
X143570000Y-97805135D01*
X143570000Y-98608011D01*
X143560060Y-98590795D01*
X143504205Y-98534940D01*
X143435796Y-98495444D01*
X143359496Y-98475000D01*
X143280504Y-98475000D01*
X143204204Y-98495444D01*
X143135795Y-98534940D01*
X143079940Y-98590795D01*
X143070000Y-98608011D01*
X143070000Y-97805136D01*
X143069999Y-97805135D01*
X143028316Y-97813427D01*
X143028308Y-97813429D01*
X142846328Y-97888807D01*
X142846315Y-97888814D01*
X142682537Y-97998248D01*
X142682533Y-97998251D01*
X142543251Y-98137533D01*
X142543248Y-98137537D01*
X142433814Y-98301315D01*
X142433807Y-98301328D01*
X142358430Y-98483306D01*
X142358427Y-98483318D01*
X142320000Y-98676504D01*
X135679999Y-98676504D01*
X135641572Y-98483318D01*
X135641569Y-98483306D01*
X135566192Y-98301328D01*
X135566185Y-98301315D01*
X135456751Y-98137537D01*
X135456748Y-98137533D01*
X135317466Y-97998251D01*
X135317462Y-97998248D01*
X135153684Y-97888814D01*
X135153671Y-97888807D01*
X134971691Y-97813429D01*
X134971683Y-97813427D01*
X134930000Y-97805135D01*
X134930000Y-98608011D01*
X134920060Y-98590795D01*
X134864205Y-98534940D01*
X134795796Y-98495444D01*
X134719496Y-98475000D01*
X134640504Y-98475000D01*
X134564204Y-98495444D01*
X134495795Y-98534940D01*
X134439940Y-98590795D01*
X134430000Y-98608011D01*
X134430000Y-97805136D01*
X134429999Y-97805135D01*
X134388316Y-97813427D01*
X134388308Y-97813429D01*
X134206328Y-97888807D01*
X134206315Y-97888814D01*
X134042537Y-97998248D01*
X134042533Y-97998251D01*
X133903251Y-98137533D01*
X133903248Y-98137537D01*
X133793814Y-98301315D01*
X133793807Y-98301328D01*
X133718430Y-98483306D01*
X133718427Y-98483318D01*
X133680000Y-98676504D01*
X114500500Y-98676504D01*
X114500500Y-94246504D01*
X133680000Y-94246504D01*
X133680000Y-94645000D01*
X134380000Y-94645000D01*
X134380000Y-95145000D01*
X133680000Y-95145000D01*
X133680000Y-95543495D01*
X133718427Y-95736681D01*
X133718430Y-95736693D01*
X133793807Y-95918671D01*
X133793814Y-95918684D01*
X133903248Y-96082462D01*
X133903251Y-96082466D01*
X134042533Y-96221748D01*
X134042537Y-96221751D01*
X134206315Y-96331185D01*
X134206328Y-96331192D01*
X134388308Y-96406569D01*
X134430000Y-96414862D01*
X134430000Y-95611988D01*
X134439940Y-95629205D01*
X134495795Y-95685060D01*
X134564204Y-95724556D01*
X134640504Y-95745000D01*
X134719496Y-95745000D01*
X134795796Y-95724556D01*
X134864205Y-95685060D01*
X134920060Y-95629205D01*
X134930000Y-95611988D01*
X134930000Y-96414862D01*
X134971690Y-96406569D01*
X134971692Y-96406569D01*
X135153671Y-96331192D01*
X135153684Y-96331185D01*
X135317462Y-96221751D01*
X135317466Y-96221748D01*
X135456748Y-96082466D01*
X135456751Y-96082462D01*
X135566185Y-95918684D01*
X135566186Y-95918682D01*
X135570129Y-95909163D01*
X135613968Y-95854757D01*
X135680261Y-95832689D01*
X135747961Y-95849965D01*
X135753400Y-95853647D01*
X135756634Y-95855514D01*
X135756635Y-95855515D01*
X135887865Y-95931281D01*
X136034234Y-95970500D01*
X136034236Y-95970500D01*
X136185764Y-95970500D01*
X136185766Y-95970500D01*
X136332135Y-95931281D01*
X136463365Y-95855515D01*
X136570515Y-95748365D01*
X136646281Y-95617135D01*
X136685500Y-95470766D01*
X136685500Y-95319234D01*
X136646281Y-95172865D01*
X136570515Y-95041635D01*
X136463365Y-94934485D01*
X136397750Y-94896602D01*
X136332136Y-94858719D01*
X136258950Y-94839109D01*
X136185766Y-94819500D01*
X136034234Y-94819500D01*
X135887863Y-94858719D01*
X135756635Y-94934485D01*
X135756632Y-94934487D01*
X135649487Y-95041632D01*
X135649483Y-95041638D01*
X135625603Y-95083000D01*
X135575036Y-95131216D01*
X135518216Y-95145000D01*
X134980000Y-95145000D01*
X134980000Y-94645000D01*
X135680000Y-94645000D01*
X135680000Y-94246508D01*
X135679999Y-94246504D01*
X135641572Y-94053318D01*
X135641569Y-94053306D01*
X135566192Y-93871328D01*
X135566185Y-93871315D01*
X135456751Y-93707537D01*
X135456748Y-93707533D01*
X135317466Y-93568251D01*
X135317462Y-93568248D01*
X135153684Y-93458814D01*
X135153671Y-93458807D01*
X134971691Y-93383429D01*
X134971683Y-93383427D01*
X134930000Y-93375135D01*
X134930000Y-94178011D01*
X134920060Y-94160795D01*
X134864205Y-94104940D01*
X134795796Y-94065444D01*
X134719496Y-94045000D01*
X134640504Y-94045000D01*
X134564204Y-94065444D01*
X134495795Y-94104940D01*
X134439940Y-94160795D01*
X134430000Y-94178011D01*
X134430000Y-93375136D01*
X134429999Y-93375135D01*
X134388316Y-93383427D01*
X134388308Y-93383429D01*
X134206328Y-93458807D01*
X134206315Y-93458814D01*
X134042537Y-93568248D01*
X134042533Y-93568251D01*
X133903251Y-93707533D01*
X133903248Y-93707537D01*
X133793814Y-93871315D01*
X133793807Y-93871328D01*
X133718430Y-94053306D01*
X133718427Y-94053318D01*
X133680000Y-94246504D01*
X114500500Y-94246504D01*
X114500500Y-42602135D01*
X115649500Y-42602135D01*
X115649500Y-44397870D01*
X115649501Y-44397876D01*
X115655908Y-44457483D01*
X115706202Y-44592328D01*
X115706206Y-44592335D01*
X115792452Y-44707544D01*
X115792455Y-44707547D01*
X115907664Y-44793793D01*
X115907671Y-44793797D01*
X116039082Y-44842810D01*
X116095016Y-44884681D01*
X116119433Y-44950145D01*
X116104582Y-45018418D01*
X116083431Y-45046673D01*
X115969889Y-45160215D01*
X115844951Y-45332179D01*
X115748444Y-45521585D01*
X115682753Y-45723760D01*
X115658137Y-45879179D01*
X115649500Y-45933713D01*
X115649500Y-46146287D01*
X115682754Y-46356243D01*
X115737431Y-46524522D01*
X115748444Y-46558414D01*
X115844951Y-46747820D01*
X115969890Y-46919786D01*
X116120213Y-47070109D01*
X116292179Y-47195048D01*
X116292181Y-47195049D01*
X116292184Y-47195051D01*
X116301493Y-47199794D01*
X116352290Y-47247766D01*
X116369087Y-47315587D01*
X116346552Y-47381722D01*
X116301505Y-47420760D01*
X116292446Y-47425376D01*
X116292440Y-47425380D01*
X116238282Y-47464727D01*
X116238282Y-47464728D01*
X116870591Y-48097037D01*
X116807007Y-48114075D01*
X116692993Y-48179901D01*
X116599901Y-48272993D01*
X116534075Y-48387007D01*
X116517037Y-48450591D01*
X115884728Y-47818282D01*
X115884727Y-47818282D01*
X115845380Y-47872439D01*
X115748904Y-48061782D01*
X115683242Y-48263869D01*
X115683242Y-48263872D01*
X115650000Y-48473753D01*
X115650000Y-48686246D01*
X115683242Y-48896127D01*
X115683242Y-48896130D01*
X115748904Y-49098217D01*
X115845375Y-49287550D01*
X115884728Y-49341716D01*
X116517037Y-48709408D01*
X116534075Y-48772993D01*
X116599901Y-48887007D01*
X116692993Y-48980099D01*
X116807007Y-49045925D01*
X116870590Y-49062962D01*
X116238282Y-49695269D01*
X116238282Y-49695270D01*
X116292452Y-49734626D01*
X116292451Y-49734626D01*
X116301495Y-49739234D01*
X116352292Y-49787208D01*
X116369087Y-49855029D01*
X116346550Y-49921164D01*
X116301499Y-49960202D01*
X116292182Y-49964949D01*
X116120213Y-50089890D01*
X115969890Y-50240213D01*
X115844951Y-50412179D01*
X115748444Y-50601585D01*
X115682753Y-50803760D01*
X115649500Y-51013713D01*
X115649500Y-51226286D01*
X115681481Y-51428210D01*
X115682754Y-51436243D01*
X115705142Y-51505147D01*
X115748444Y-51638414D01*
X115844951Y-51827820D01*
X115969890Y-51999786D01*
X116120213Y-52150109D01*
X116292182Y-52275050D01*
X116300946Y-52279516D01*
X116351742Y-52327491D01*
X116368536Y-52395312D01*
X116345998Y-52461447D01*
X116300946Y-52500484D01*
X116292182Y-52504949D01*
X116120213Y-52629890D01*
X115969890Y-52780213D01*
X115844951Y-52952179D01*
X115748444Y-53141585D01*
X115682753Y-53343760D01*
X115649500Y-53553713D01*
X115649500Y-53766287D01*
X115659534Y-53829644D01*
X115675300Y-53929185D01*
X115682754Y-53976243D01*
X115732132Y-54128213D01*
X115748444Y-54178414D01*
X115844951Y-54367820D01*
X115969890Y-54539786D01*
X116120213Y-54690109D01*
X116292182Y-54815050D01*
X116300946Y-54819516D01*
X116351742Y-54867491D01*
X116368536Y-54935312D01*
X116345998Y-55001447D01*
X116300946Y-55040484D01*
X116292182Y-55044949D01*
X116120213Y-55169890D01*
X115969890Y-55320213D01*
X115844951Y-55492179D01*
X115748444Y-55681585D01*
X115682753Y-55883760D01*
X115655719Y-56054450D01*
X115649500Y-56093713D01*
X115649500Y-56306287D01*
X115682754Y-56516243D01*
X115684489Y-56521584D01*
X115748444Y-56718414D01*
X115844951Y-56907820D01*
X115969890Y-57079786D01*
X116120213Y-57230109D01*
X116292182Y-57355050D01*
X116300946Y-57359516D01*
X116351742Y-57407491D01*
X116368536Y-57475312D01*
X116345998Y-57541447D01*
X116300946Y-57580484D01*
X116292182Y-57584949D01*
X116120213Y-57709890D01*
X115969890Y-57860213D01*
X115844951Y-58032179D01*
X115748444Y-58221585D01*
X115682753Y-58423760D01*
X115649500Y-58633713D01*
X115649500Y-58846286D01*
X115672215Y-58989707D01*
X115682754Y-59056243D01*
X115737431Y-59224522D01*
X115748444Y-59258414D01*
X115844951Y-59447820D01*
X115969890Y-59619786D01*
X116120213Y-59770109D01*
X116292182Y-59895050D01*
X116300946Y-59899516D01*
X116351742Y-59947491D01*
X116368536Y-60015312D01*
X116345998Y-60081447D01*
X116300946Y-60120484D01*
X116292182Y-60124949D01*
X116120213Y-60249890D01*
X115969890Y-60400213D01*
X115844951Y-60572179D01*
X115748444Y-60761585D01*
X115748443Y-60761587D01*
X115748443Y-60761588D01*
X115682755Y-60963756D01*
X115682754Y-60963758D01*
X115649500Y-61173713D01*
X115649500Y-61386286D01*
X115665175Y-61485258D01*
X115682754Y-61596243D01*
X115738077Y-61766510D01*
X115748444Y-61798414D01*
X115844951Y-61987820D01*
X115969890Y-62159786D01*
X116120213Y-62310109D01*
X116292182Y-62435050D01*
X116300946Y-62439516D01*
X116351742Y-62487491D01*
X116368536Y-62555312D01*
X116345998Y-62621447D01*
X116300946Y-62660484D01*
X116292182Y-62664949D01*
X116120213Y-62789890D01*
X115969890Y-62940213D01*
X115844951Y-63112179D01*
X115748444Y-63301585D01*
X115682753Y-63503760D01*
X115657044Y-63666082D01*
X115649500Y-63713713D01*
X115649500Y-63926287D01*
X115654668Y-63958917D01*
X115682721Y-64136038D01*
X115682754Y-64136243D01*
X115743419Y-64322951D01*
X115748444Y-64338414D01*
X115844951Y-64527820D01*
X115969890Y-64699786D01*
X116120213Y-64850109D01*
X116292179Y-64975048D01*
X116292181Y-64975049D01*
X116292184Y-64975051D01*
X116301493Y-64979794D01*
X116352290Y-65027766D01*
X116369087Y-65095587D01*
X116346552Y-65161722D01*
X116301505Y-65200760D01*
X116292446Y-65205376D01*
X116292440Y-65205380D01*
X116238282Y-65244727D01*
X116238282Y-65244728D01*
X116870591Y-65877037D01*
X116807007Y-65894075D01*
X116692993Y-65959901D01*
X116599901Y-66052993D01*
X116534075Y-66167007D01*
X116517037Y-66230591D01*
X115884728Y-65598282D01*
X115884727Y-65598282D01*
X115845380Y-65652439D01*
X115748904Y-65841782D01*
X115683242Y-66043869D01*
X115683242Y-66043872D01*
X115650000Y-66253753D01*
X115650000Y-66466246D01*
X115683242Y-66676127D01*
X115683242Y-66676130D01*
X115748904Y-66878217D01*
X115845375Y-67067550D01*
X115884728Y-67121716D01*
X116517037Y-66489408D01*
X116534075Y-66552993D01*
X116599901Y-66667007D01*
X116692993Y-66760099D01*
X116807007Y-66825925D01*
X116870590Y-66842962D01*
X116238282Y-67475269D01*
X116238282Y-67475270D01*
X116292452Y-67514626D01*
X116292451Y-67514626D01*
X116301495Y-67519234D01*
X116352292Y-67567208D01*
X116369087Y-67635029D01*
X116346550Y-67701164D01*
X116301499Y-67740202D01*
X116292182Y-67744949D01*
X116120213Y-67869890D01*
X115969890Y-68020213D01*
X115844951Y-68192179D01*
X115748444Y-68381585D01*
X115682753Y-68583760D01*
X115649500Y-68793713D01*
X115649500Y-69006287D01*
X115682754Y-69216243D01*
X115730888Y-69364385D01*
X115748444Y-69418414D01*
X115844951Y-69607820D01*
X115969890Y-69779786D01*
X116120213Y-69930109D01*
X116292182Y-70055050D01*
X116300946Y-70059516D01*
X116351742Y-70107491D01*
X116368536Y-70175312D01*
X116345998Y-70241447D01*
X116300946Y-70280484D01*
X116292182Y-70284949D01*
X116120213Y-70409890D01*
X115969890Y-70560213D01*
X115844951Y-70732179D01*
X115748444Y-70921585D01*
X115682753Y-71123760D01*
X115649500Y-71333713D01*
X115649500Y-71546286D01*
X115682753Y-71756239D01*
X115748444Y-71958414D01*
X115844951Y-72147820D01*
X115969890Y-72319786D01*
X116120213Y-72470109D01*
X116292182Y-72595050D01*
X116300946Y-72599516D01*
X116351742Y-72647491D01*
X116368536Y-72715312D01*
X116345998Y-72781447D01*
X116300946Y-72820484D01*
X116292182Y-72824949D01*
X116120213Y-72949890D01*
X115969890Y-73100213D01*
X115844951Y-73272179D01*
X115748444Y-73461585D01*
X115682753Y-73663760D01*
X115649500Y-73873713D01*
X115649500Y-74086286D01*
X115682753Y-74296239D01*
X115748444Y-74498414D01*
X115844951Y-74687820D01*
X115969890Y-74859786D01*
X116120213Y-75010109D01*
X116292182Y-75135050D01*
X116300946Y-75139516D01*
X116351742Y-75187491D01*
X116368536Y-75255312D01*
X116345998Y-75321447D01*
X116300946Y-75360484D01*
X116292182Y-75364949D01*
X116120213Y-75489890D01*
X115969890Y-75640213D01*
X115844951Y-75812179D01*
X115748444Y-76001585D01*
X115682753Y-76203760D01*
X115661981Y-76334912D01*
X115649500Y-76413713D01*
X115649500Y-76626287D01*
X115659534Y-76689644D01*
X115682753Y-76836239D01*
X115682753Y-76836241D01*
X115682754Y-76836243D01*
X115739306Y-77010292D01*
X115748444Y-77038414D01*
X115844951Y-77227820D01*
X115969890Y-77399786D01*
X116120213Y-77550109D01*
X116292182Y-77675050D01*
X116300946Y-77679516D01*
X116351742Y-77727491D01*
X116368536Y-77795312D01*
X116345998Y-77861447D01*
X116300946Y-77900484D01*
X116292182Y-77904949D01*
X116120213Y-78029890D01*
X115969890Y-78180213D01*
X115844951Y-78352179D01*
X115748444Y-78541585D01*
X115682753Y-78743760D01*
X115649500Y-78953713D01*
X115649500Y-79166286D01*
X115669686Y-79293739D01*
X115682754Y-79376243D01*
X115728327Y-79516503D01*
X115748444Y-79578414D01*
X115844951Y-79767820D01*
X115969890Y-79939786D01*
X116120213Y-80090109D01*
X116292179Y-80215048D01*
X116292181Y-80215049D01*
X116292184Y-80215051D01*
X116481588Y-80311557D01*
X116683757Y-80377246D01*
X116893713Y-80410500D01*
X116893714Y-80410500D01*
X117106286Y-80410500D01*
X117106287Y-80410500D01*
X117316243Y-80377246D01*
X117518412Y-80311557D01*
X117707816Y-80215051D01*
X117729789Y-80199086D01*
X117879786Y-80090109D01*
X117879788Y-80090106D01*
X117879792Y-80090104D01*
X118030104Y-79939792D01*
X118030106Y-79939788D01*
X118030109Y-79939786D01*
X118155048Y-79767820D01*
X118155047Y-79767820D01*
X118155051Y-79767816D01*
X118251557Y-79578412D01*
X118317246Y-79376243D01*
X118350500Y-79166287D01*
X118350500Y-79019097D01*
X118370185Y-78952058D01*
X118422989Y-78906303D01*
X118492147Y-78896359D01*
X118555703Y-78925384D01*
X118562172Y-78931408D01*
X118611026Y-78980261D01*
X118863181Y-79232416D01*
X118896666Y-79293739D01*
X118899500Y-79320097D01*
X118899500Y-82691148D01*
X118899499Y-82691166D01*
X118899499Y-82856872D01*
X118899498Y-82856872D01*
X118940423Y-83009603D01*
X118969358Y-83059718D01*
X118969359Y-83059722D01*
X118969360Y-83059722D01*
X119019479Y-83146532D01*
X119019481Y-83146535D01*
X119138349Y-83265403D01*
X119138355Y-83265408D01*
X125287321Y-89414374D01*
X125287331Y-89414385D01*
X125291661Y-89418715D01*
X125291662Y-89418716D01*
X125403466Y-89530520D01*
X125478633Y-89573917D01*
X125540397Y-89609577D01*
X125693125Y-89650501D01*
X125693128Y-89650501D01*
X125858835Y-89650501D01*
X125858851Y-89650500D01*
X129585514Y-89650500D01*
X129585530Y-89650501D01*
X129593126Y-89650501D01*
X129751237Y-89650501D01*
X129751240Y-89650501D01*
X129903968Y-89609577D01*
X129965732Y-89573917D01*
X130040899Y-89530520D01*
X130152703Y-89418716D01*
X130152703Y-89418714D01*
X130162907Y-89408511D01*
X130162910Y-89408506D01*
X135429775Y-84141642D01*
X135457628Y-84126433D01*
X135484635Y-84109747D01*
X135488076Y-84109808D01*
X135491096Y-84108159D01*
X135522755Y-84110423D01*
X135554493Y-84110986D01*
X135558688Y-84112992D01*
X135560788Y-84113143D01*
X135586333Y-84126215D01*
X135588634Y-84127752D01*
X135595260Y-84132179D01*
X135595268Y-84132188D01*
X135595270Y-84132186D01*
X135644505Y-84165084D01*
X135644506Y-84165084D01*
X135644507Y-84165085D01*
X135644509Y-84165086D01*
X135781082Y-84221656D01*
X135781087Y-84221658D01*
X135781091Y-84221658D01*
X135781092Y-84221659D01*
X135926079Y-84250500D01*
X135926082Y-84250500D01*
X136073920Y-84250500D01*
X136171462Y-84231096D01*
X136218913Y-84221658D01*
X136355495Y-84165084D01*
X136404729Y-84132186D01*
X136404743Y-84132177D01*
X136440689Y-84108159D01*
X136478416Y-84082952D01*
X136774549Y-83786819D01*
X136835872Y-83753334D01*
X136862230Y-83750500D01*
X139573918Y-83750500D01*
X139580372Y-83749216D01*
X139649963Y-83755440D01*
X139705143Y-83798300D01*
X139728391Y-83864188D01*
X139712327Y-83932186D01*
X139692250Y-83958513D01*
X138921699Y-84729064D01*
X138860376Y-84762549D01*
X138858210Y-84763000D01*
X138781092Y-84778340D01*
X138781084Y-84778342D01*
X138644511Y-84834912D01*
X138644498Y-84834919D01*
X138521584Y-84917048D01*
X138521580Y-84917051D01*
X138417051Y-85021580D01*
X138417048Y-85021584D01*
X138334919Y-85144498D01*
X138334912Y-85144511D01*
X138278343Y-85281082D01*
X138278340Y-85281092D01*
X138249500Y-85426079D01*
X138249500Y-85426082D01*
X138249500Y-85573918D01*
X138249500Y-85573920D01*
X138249499Y-85573920D01*
X138278340Y-85718907D01*
X138278343Y-85718917D01*
X138334912Y-85855488D01*
X138334919Y-85855501D01*
X138417048Y-85978415D01*
X138417051Y-85978419D01*
X138521580Y-86082948D01*
X138521584Y-86082951D01*
X138644498Y-86165080D01*
X138644511Y-86165087D01*
X138718696Y-86195815D01*
X138781087Y-86221658D01*
X138781091Y-86221658D01*
X138781092Y-86221659D01*
X138926079Y-86250500D01*
X138926082Y-86250500D01*
X139073920Y-86250500D01*
X139171462Y-86231096D01*
X139218913Y-86221658D01*
X139355495Y-86165084D01*
X139478416Y-86082951D01*
X139582951Y-85978416D01*
X139665084Y-85855495D01*
X139721658Y-85718913D01*
X139736999Y-85641786D01*
X139769381Y-85579879D01*
X139770875Y-85578358D01*
X142078302Y-83270932D01*
X142139623Y-83237449D01*
X142141652Y-83237026D01*
X142218913Y-83221658D01*
X142355495Y-83165084D01*
X142478416Y-83082951D01*
X142582951Y-82978416D01*
X142665084Y-82855495D01*
X142721658Y-82718913D01*
X142736459Y-82644505D01*
X142750500Y-82573920D01*
X142750500Y-82426079D01*
X142721659Y-82281092D01*
X142721658Y-82281091D01*
X142721658Y-82281087D01*
X142708574Y-82249500D01*
X142665087Y-82144511D01*
X142665080Y-82144498D01*
X142582951Y-82021584D01*
X142582948Y-82021580D01*
X142478419Y-81917051D01*
X142478415Y-81917048D01*
X142355501Y-81834919D01*
X142355488Y-81834912D01*
X142218917Y-81778343D01*
X142218907Y-81778340D01*
X142073920Y-81749500D01*
X142073918Y-81749500D01*
X141926082Y-81749500D01*
X141926080Y-81749500D01*
X141781092Y-81778340D01*
X141781082Y-81778343D01*
X141644511Y-81834912D01*
X141644498Y-81834919D01*
X141521584Y-81917048D01*
X141521580Y-81917051D01*
X141417051Y-82021580D01*
X141417048Y-82021584D01*
X141334919Y-82144498D01*
X141334912Y-82144511D01*
X141278342Y-82281084D01*
X141278340Y-82281090D01*
X141263000Y-82358210D01*
X141230614Y-82420120D01*
X141229064Y-82421698D01*
X140458513Y-83192249D01*
X140397190Y-83225734D01*
X140327498Y-83220750D01*
X140271565Y-83178878D01*
X140247148Y-83113414D01*
X140249215Y-83080375D01*
X140250500Y-83073918D01*
X140250500Y-82926082D01*
X140250500Y-82926079D01*
X140221659Y-82781092D01*
X140221658Y-82781091D01*
X140221658Y-82781087D01*
X140221656Y-82781082D01*
X140165087Y-82644511D01*
X140165080Y-82644498D01*
X140082951Y-82521584D01*
X140082948Y-82521580D01*
X139978419Y-82417051D01*
X139978415Y-82417048D01*
X139855501Y-82334919D01*
X139855488Y-82334912D01*
X139718917Y-82278343D01*
X139718907Y-82278340D01*
X139573920Y-82249500D01*
X139573918Y-82249500D01*
X137621281Y-82249500D01*
X137554242Y-82229815D01*
X137508487Y-82177011D01*
X137498543Y-82107853D01*
X137527568Y-82044297D01*
X137533600Y-82037819D01*
X137821919Y-81749500D01*
X139248979Y-80322438D01*
X139310300Y-80288955D01*
X139360850Y-80288504D01*
X139421155Y-80300500D01*
X139421158Y-80300500D01*
X139578844Y-80300500D01*
X139578845Y-80300499D01*
X139733497Y-80269737D01*
X139879179Y-80209394D01*
X140010289Y-80121789D01*
X140121789Y-80010289D01*
X140209394Y-79879179D01*
X140269737Y-79733497D01*
X140300500Y-79578842D01*
X140300500Y-79421158D01*
X140300500Y-79421155D01*
X140300499Y-79421153D01*
X140281200Y-79324131D01*
X140269737Y-79266503D01*
X140267758Y-79261726D01*
X140209397Y-79120827D01*
X140209390Y-79120814D01*
X140121789Y-78989711D01*
X140121786Y-78989707D01*
X140010292Y-78878213D01*
X140010288Y-78878210D01*
X139939817Y-78831122D01*
X139895012Y-78777509D01*
X139886305Y-78708184D01*
X139916460Y-78645157D01*
X139921008Y-78640358D01*
X140774548Y-77786819D01*
X140835871Y-77753334D01*
X140862229Y-77750500D01*
X147573920Y-77750500D01*
X147689589Y-77727491D01*
X147718913Y-77721658D01*
X147824547Y-77677902D01*
X147855488Y-77665087D01*
X147855488Y-77665086D01*
X147855495Y-77665084D01*
X147978416Y-77582951D01*
X148082951Y-77478416D01*
X148165084Y-77355495D01*
X148221658Y-77218913D01*
X148250500Y-77073918D01*
X148250500Y-76926082D01*
X148250500Y-76926079D01*
X148221659Y-76781092D01*
X148221658Y-76781091D01*
X148221658Y-76781087D01*
X148201946Y-76733497D01*
X148165087Y-76644511D01*
X148165080Y-76644498D01*
X148082951Y-76521584D01*
X148082948Y-76521580D01*
X147978419Y-76417051D01*
X147978415Y-76417048D01*
X147855501Y-76334919D01*
X147855488Y-76334912D01*
X147718917Y-76278343D01*
X147718907Y-76278340D01*
X147573920Y-76249500D01*
X147573918Y-76249500D01*
X140426082Y-76249500D01*
X140426080Y-76249500D01*
X140281092Y-76278340D01*
X140281082Y-76278343D01*
X140144511Y-76334912D01*
X140144504Y-76334916D01*
X140114885Y-76354707D01*
X140085265Y-76374499D01*
X140085264Y-76374500D01*
X140021581Y-76417050D01*
X140021580Y-76417051D01*
X138225451Y-78213181D01*
X138164128Y-78246666D01*
X138137770Y-78249500D01*
X135365603Y-78249500D01*
X135298564Y-78229815D01*
X135252809Y-78177011D01*
X135242865Y-78107853D01*
X135271890Y-78044297D01*
X135303603Y-78018113D01*
X135345149Y-77994126D01*
X135368716Y-77980520D01*
X135480520Y-77868716D01*
X135480520Y-77868714D01*
X135490724Y-77858511D01*
X135490727Y-77858506D01*
X136014665Y-77334570D01*
X136075984Y-77301088D01*
X136078151Y-77300637D01*
X136078840Y-77300500D01*
X136078842Y-77300500D01*
X136233497Y-77269737D01*
X136379179Y-77209394D01*
X136510289Y-77121789D01*
X136621789Y-77010289D01*
X136709394Y-76879179D01*
X136769737Y-76733497D01*
X136800500Y-76578842D01*
X136800500Y-76421158D01*
X136800500Y-76421155D01*
X136800499Y-76421153D01*
X136772092Y-76278342D01*
X136769737Y-76266503D01*
X136743747Y-76203757D01*
X136709397Y-76120827D01*
X136709390Y-76120814D01*
X136621789Y-75989711D01*
X136621786Y-75989707D01*
X136510292Y-75878213D01*
X136510288Y-75878210D01*
X136379185Y-75790609D01*
X136379172Y-75790602D01*
X136233501Y-75730264D01*
X136233489Y-75730261D01*
X136078845Y-75699500D01*
X136078842Y-75699500D01*
X135921158Y-75699500D01*
X135921155Y-75699500D01*
X135766510Y-75730261D01*
X135766498Y-75730264D01*
X135620827Y-75790602D01*
X135620814Y-75790609D01*
X135489711Y-75878210D01*
X135489707Y-75878213D01*
X135378213Y-75989707D01*
X135378210Y-75989711D01*
X135290609Y-76120814D01*
X135290602Y-76120827D01*
X135230264Y-76266498D01*
X135230261Y-76266508D01*
X135199362Y-76421849D01*
X135166977Y-76483759D01*
X135165426Y-76485338D01*
X134787584Y-76863181D01*
X134726261Y-76896666D01*
X134699903Y-76899500D01*
X130420940Y-76899500D01*
X130380019Y-76910464D01*
X130380019Y-76910465D01*
X130342751Y-76920451D01*
X130268214Y-76940423D01*
X130268209Y-76940426D01*
X130131290Y-77019475D01*
X130131282Y-77019481D01*
X126812181Y-80338583D01*
X126750858Y-80372068D01*
X126681166Y-80367084D01*
X126625233Y-80325212D01*
X126600816Y-80259748D01*
X126600500Y-80250902D01*
X126600500Y-69989767D01*
X126620185Y-69922728D01*
X126621398Y-69920876D01*
X126665080Y-69855501D01*
X126665080Y-69855500D01*
X126665084Y-69855495D01*
X126721658Y-69718913D01*
X126737331Y-69640122D01*
X126745251Y-69600308D01*
X126777636Y-69538397D01*
X126838352Y-69503823D01*
X126866868Y-69500500D01*
X130599903Y-69500500D01*
X130666942Y-69520185D01*
X130687584Y-69536819D01*
X132265139Y-71114374D01*
X132265149Y-71114385D01*
X132269479Y-71118715D01*
X132269480Y-71118716D01*
X132381284Y-71230520D01*
X132468095Y-71280639D01*
X132468097Y-71280641D01*
X132506151Y-71302611D01*
X132518215Y-71309577D01*
X132670943Y-71350500D01*
X135413331Y-71350500D01*
X135413347Y-71350501D01*
X135420943Y-71350501D01*
X135579054Y-71350501D01*
X135579057Y-71350501D01*
X135731785Y-71309577D01*
X135781904Y-71280639D01*
X135868716Y-71230520D01*
X135980520Y-71118716D01*
X135980520Y-71118714D01*
X135990728Y-71108507D01*
X135990730Y-71108504D01*
X136108506Y-70990728D01*
X136108511Y-70990724D01*
X136118714Y-70980520D01*
X136118716Y-70980520D01*
X136230520Y-70868716D01*
X136309577Y-70731784D01*
X136350500Y-70579057D01*
X136350500Y-70579048D01*
X136351561Y-70570997D01*
X136353018Y-70571188D01*
X136370185Y-70512726D01*
X136371398Y-70510874D01*
X136459390Y-70379185D01*
X136459390Y-70379184D01*
X136459394Y-70379179D01*
X136519737Y-70233497D01*
X136550500Y-70078842D01*
X136550500Y-69921158D01*
X136550500Y-69921155D01*
X136550499Y-69921153D01*
X136519738Y-69766510D01*
X136519737Y-69766503D01*
X136519732Y-69766492D01*
X136517969Y-69760676D01*
X136520720Y-69759841D01*
X136514497Y-69702641D01*
X136545691Y-69640122D01*
X136605734Y-69604392D01*
X136636555Y-69600500D01*
X154413331Y-69600500D01*
X154413347Y-69600501D01*
X154420943Y-69600501D01*
X154579054Y-69600501D01*
X154579057Y-69600501D01*
X154731785Y-69559577D01*
X154781904Y-69530639D01*
X154868716Y-69480520D01*
X154980520Y-69368716D01*
X154980520Y-69368714D01*
X154990728Y-69358507D01*
X154990730Y-69358504D01*
X159358506Y-64990728D01*
X159358511Y-64990724D01*
X159368714Y-64980520D01*
X159368716Y-64980520D01*
X159480520Y-64868716D01*
X159539532Y-64766503D01*
X159559577Y-64731785D01*
X159600501Y-64579057D01*
X159600501Y-64564557D01*
X159620186Y-64497518D01*
X159672990Y-64451763D01*
X159742148Y-64441819D01*
X159805704Y-64470844D01*
X159834986Y-64508263D01*
X159844949Y-64527817D01*
X159969890Y-64699786D01*
X160120213Y-64850109D01*
X160292182Y-64975050D01*
X160300946Y-64979516D01*
X160351742Y-65027491D01*
X160368536Y-65095312D01*
X160345998Y-65161447D01*
X160300946Y-65200484D01*
X160292182Y-65204949D01*
X160120213Y-65329890D01*
X159969890Y-65480213D01*
X159844951Y-65652179D01*
X159748444Y-65841585D01*
X159682753Y-66043760D01*
X159649500Y-66253713D01*
X159649500Y-66466286D01*
X159682735Y-66676127D01*
X159682754Y-66676243D01*
X159713132Y-66769737D01*
X159748444Y-66878414D01*
X159844951Y-67067820D01*
X159969890Y-67239786D01*
X160120213Y-67390109D01*
X160292182Y-67515050D01*
X160300946Y-67519516D01*
X160351742Y-67567491D01*
X160368536Y-67635312D01*
X160345998Y-67701447D01*
X160300946Y-67740484D01*
X160292182Y-67744949D01*
X160120213Y-67869890D01*
X159969890Y-68020213D01*
X159844951Y-68192179D01*
X159748444Y-68381585D01*
X159682753Y-68583760D01*
X159649500Y-68793713D01*
X159649500Y-69006287D01*
X159682754Y-69216243D01*
X159730888Y-69364385D01*
X159748444Y-69418414D01*
X159844951Y-69607820D01*
X159969890Y-69779786D01*
X160120213Y-69930109D01*
X160292182Y-70055050D01*
X160300946Y-70059516D01*
X160351742Y-70107491D01*
X160368536Y-70175312D01*
X160345998Y-70241447D01*
X160300946Y-70280484D01*
X160292182Y-70284949D01*
X160120213Y-70409890D01*
X159969890Y-70560213D01*
X159844951Y-70732179D01*
X159748444Y-70921585D01*
X159682753Y-71123760D01*
X159649500Y-71333713D01*
X159649500Y-71546286D01*
X159682753Y-71756239D01*
X159748444Y-71958414D01*
X159844951Y-72147820D01*
X159969890Y-72319786D01*
X160120213Y-72470109D01*
X160292179Y-72595048D01*
X160292181Y-72595049D01*
X160292184Y-72595051D01*
X160301493Y-72599794D01*
X160352290Y-72647766D01*
X160369087Y-72715587D01*
X160346552Y-72781722D01*
X160301505Y-72820760D01*
X160292446Y-72825376D01*
X160292440Y-72825380D01*
X160238282Y-72864727D01*
X160238282Y-72864728D01*
X160870591Y-73497037D01*
X160807007Y-73514075D01*
X160692993Y-73579901D01*
X160599901Y-73672993D01*
X160534075Y-73787007D01*
X160517037Y-73850591D01*
X159884728Y-73218282D01*
X159884727Y-73218282D01*
X159845380Y-73272439D01*
X159748904Y-73461782D01*
X159683242Y-73663869D01*
X159683242Y-73663872D01*
X159650000Y-73873753D01*
X159650000Y-74086246D01*
X159683242Y-74296127D01*
X159683242Y-74296130D01*
X159748904Y-74498217D01*
X159845375Y-74687550D01*
X159884728Y-74741716D01*
X160517036Y-74109407D01*
X160534075Y-74172993D01*
X160599901Y-74287007D01*
X160692993Y-74380099D01*
X160807007Y-74445925D01*
X160870590Y-74462962D01*
X160238282Y-75095269D01*
X160238282Y-75095270D01*
X160292452Y-75134626D01*
X160292451Y-75134626D01*
X160301495Y-75139234D01*
X160352292Y-75187208D01*
X160369087Y-75255029D01*
X160346550Y-75321164D01*
X160301499Y-75360202D01*
X160292182Y-75364949D01*
X160120213Y-75489890D01*
X159969890Y-75640213D01*
X159844951Y-75812179D01*
X159748444Y-76001585D01*
X159682753Y-76203760D01*
X159661981Y-76334912D01*
X159649500Y-76413713D01*
X159649500Y-76626287D01*
X159659534Y-76689644D01*
X159682753Y-76836239D01*
X159682753Y-76836241D01*
X159682754Y-76836243D01*
X159739306Y-77010292D01*
X159748444Y-77038414D01*
X159844951Y-77227820D01*
X159969890Y-77399786D01*
X160120213Y-77550109D01*
X160292182Y-77675050D01*
X160300946Y-77679516D01*
X160351742Y-77727491D01*
X160368536Y-77795312D01*
X160345998Y-77861447D01*
X160300946Y-77900484D01*
X160292182Y-77904949D01*
X160120213Y-78029890D01*
X159969890Y-78180213D01*
X159844951Y-78352179D01*
X159748444Y-78541585D01*
X159682753Y-78743760D01*
X159649500Y-78953713D01*
X159649500Y-79166291D01*
X159664616Y-79261726D01*
X159655662Y-79331020D01*
X159629824Y-79368806D01*
X153417050Y-85581580D01*
X153417044Y-85581588D01*
X153367812Y-85655268D01*
X153367813Y-85655269D01*
X153334921Y-85704496D01*
X153334914Y-85704508D01*
X153278342Y-85841086D01*
X153278340Y-85841092D01*
X153249500Y-85986079D01*
X153249500Y-89137770D01*
X153229815Y-89204809D01*
X153213181Y-89225451D01*
X150725451Y-91713181D01*
X150664128Y-91746666D01*
X150637770Y-91749500D01*
X140362229Y-91749500D01*
X140295190Y-91729815D01*
X140274548Y-91713181D01*
X138746071Y-90184703D01*
X138719191Y-90144475D01*
X138709394Y-90120821D01*
X138709389Y-90120814D01*
X138621789Y-89989710D01*
X138510292Y-89878213D01*
X138510288Y-89878210D01*
X138379185Y-89790609D01*
X138379172Y-89790602D01*
X138233501Y-89730264D01*
X138233489Y-89730261D01*
X138078845Y-89699500D01*
X138078842Y-89699500D01*
X137921158Y-89699500D01*
X137921155Y-89699500D01*
X137766510Y-89730261D01*
X137766498Y-89730264D01*
X137620827Y-89790602D01*
X137620814Y-89790609D01*
X137489711Y-89878210D01*
X137489707Y-89878213D01*
X137378213Y-89989707D01*
X137378210Y-89989711D01*
X137290609Y-90120814D01*
X137290602Y-90120827D01*
X137230264Y-90266498D01*
X137230261Y-90266510D01*
X137199500Y-90421153D01*
X137199500Y-90578846D01*
X137230261Y-90733489D01*
X137230264Y-90733501D01*
X137290602Y-90879172D01*
X137290609Y-90879185D01*
X137378210Y-91010288D01*
X137378213Y-91010292D01*
X137489710Y-91121789D01*
X137620815Y-91209390D01*
X137620821Y-91209394D01*
X137644475Y-91219191D01*
X137684703Y-91246071D01*
X139417049Y-92978416D01*
X139521583Y-93082950D01*
X139521585Y-93082952D01*
X139644498Y-93165080D01*
X139644511Y-93165087D01*
X139781082Y-93221656D01*
X139781087Y-93221658D01*
X139781091Y-93221658D01*
X139781092Y-93221659D01*
X139926079Y-93250500D01*
X142749307Y-93250500D01*
X142816346Y-93270185D01*
X142862101Y-93322989D01*
X142872045Y-93392147D01*
X142843020Y-93455703D01*
X142818198Y-93477602D01*
X142682537Y-93568248D01*
X142682533Y-93568251D01*
X142543251Y-93707533D01*
X142543248Y-93707537D01*
X142433814Y-93871315D01*
X142433807Y-93871328D01*
X142358430Y-94053306D01*
X142358427Y-94053318D01*
X142320000Y-94246504D01*
X142320000Y-94645000D01*
X143020000Y-94645000D01*
X143020000Y-95145000D01*
X142481784Y-95145000D01*
X142414745Y-95125315D01*
X142374397Y-95083000D01*
X142350515Y-95041635D01*
X142243365Y-94934485D01*
X142177750Y-94896602D01*
X142112136Y-94858719D01*
X142038950Y-94839109D01*
X141965766Y-94819500D01*
X141814234Y-94819500D01*
X141667863Y-94858719D01*
X141536635Y-94934485D01*
X141536632Y-94934487D01*
X141429487Y-95041632D01*
X141429485Y-95041635D01*
X141353719Y-95172863D01*
X141314500Y-95319234D01*
X141314500Y-95470765D01*
X141353719Y-95617136D01*
X141391602Y-95682750D01*
X141429485Y-95748365D01*
X141536635Y-95855515D01*
X141667865Y-95931281D01*
X141814234Y-95970500D01*
X141814236Y-95970500D01*
X141965764Y-95970500D01*
X141965766Y-95970500D01*
X142112135Y-95931281D01*
X142243365Y-95855515D01*
X142243366Y-95855513D01*
X142250403Y-95851451D01*
X142251676Y-95853656D01*
X142304956Y-95833043D01*
X142373405Y-95847063D01*
X142423407Y-95895864D01*
X142429867Y-95909157D01*
X142433809Y-95918674D01*
X142433814Y-95918684D01*
X142543248Y-96082462D01*
X142543251Y-96082466D01*
X142682533Y-96221748D01*
X142682537Y-96221751D01*
X142846315Y-96331185D01*
X142846328Y-96331192D01*
X143028308Y-96406569D01*
X143070000Y-96414862D01*
X143070000Y-95611988D01*
X143079940Y-95629205D01*
X143135795Y-95685060D01*
X143204204Y-95724556D01*
X143280504Y-95745000D01*
X143359496Y-95745000D01*
X143435796Y-95724556D01*
X143504205Y-95685060D01*
X143560060Y-95629205D01*
X143570000Y-95611988D01*
X143570000Y-96414862D01*
X143611690Y-96406569D01*
X143611692Y-96406569D01*
X143793671Y-96331192D01*
X143793684Y-96331185D01*
X143957462Y-96221751D01*
X143957466Y-96221748D01*
X144096748Y-96082466D01*
X144096751Y-96082462D01*
X144206185Y-95918684D01*
X144206192Y-95918671D01*
X144281569Y-95736693D01*
X144281572Y-95736681D01*
X144319999Y-95543495D01*
X144320000Y-95543492D01*
X144320000Y-95145000D01*
X143620000Y-95145000D01*
X143620000Y-94645000D01*
X144320000Y-94645000D01*
X144320000Y-94246508D01*
X144319999Y-94246504D01*
X144281572Y-94053318D01*
X144281569Y-94053306D01*
X144206192Y-93871328D01*
X144206185Y-93871315D01*
X144096751Y-93707537D01*
X144096748Y-93707533D01*
X143957466Y-93568251D01*
X143957462Y-93568248D01*
X143821802Y-93477602D01*
X143776997Y-93423989D01*
X143768290Y-93354664D01*
X143798445Y-93291637D01*
X143857888Y-93254918D01*
X143890693Y-93250500D01*
X151073920Y-93250500D01*
X151171462Y-93231096D01*
X151218913Y-93221658D01*
X151355495Y-93165084D01*
X151404729Y-93132186D01*
X151478416Y-93082952D01*
X154582952Y-89978415D01*
X154623956Y-89917048D01*
X154665084Y-89855495D01*
X154697042Y-89778342D01*
X154721659Y-89718912D01*
X154750500Y-89573917D01*
X154750500Y-89426082D01*
X154750500Y-86422229D01*
X154770185Y-86355190D01*
X154786814Y-86334553D01*
X160691194Y-80430172D01*
X160752515Y-80396689D01*
X160798265Y-80395382D01*
X160893713Y-80410500D01*
X160893715Y-80410500D01*
X161106286Y-80410500D01*
X161106287Y-80410500D01*
X161316243Y-80377246D01*
X161518412Y-80311557D01*
X161707816Y-80215051D01*
X161729789Y-80199086D01*
X161879786Y-80090109D01*
X161879788Y-80090106D01*
X161879792Y-80090104D01*
X162030104Y-79939792D01*
X162030106Y-79939788D01*
X162030109Y-79939786D01*
X162155048Y-79767820D01*
X162155047Y-79767820D01*
X162155051Y-79767816D01*
X162251557Y-79578412D01*
X162317246Y-79376243D01*
X162350500Y-79166287D01*
X162350500Y-78953713D01*
X162317246Y-78743757D01*
X162251557Y-78541588D01*
X162155051Y-78352184D01*
X162155049Y-78352181D01*
X162155048Y-78352179D01*
X162030109Y-78180213D01*
X161879786Y-78029890D01*
X161707820Y-77904951D01*
X161707115Y-77904591D01*
X161699054Y-77900485D01*
X161648259Y-77852512D01*
X161631463Y-77784692D01*
X161653999Y-77718556D01*
X161699054Y-77679515D01*
X161707816Y-77675051D01*
X161834586Y-77582948D01*
X161879786Y-77550109D01*
X161879788Y-77550106D01*
X161879792Y-77550104D01*
X162030104Y-77399792D01*
X162030106Y-77399788D01*
X162030109Y-77399786D01*
X162155048Y-77227820D01*
X162155047Y-77227820D01*
X162155051Y-77227816D01*
X162251557Y-77038412D01*
X162317246Y-76836243D01*
X162350500Y-76626287D01*
X162350500Y-76413713D01*
X162317246Y-76203757D01*
X162251557Y-76001588D01*
X162155051Y-75812184D01*
X162155049Y-75812181D01*
X162155048Y-75812179D01*
X162030109Y-75640213D01*
X161879786Y-75489890D01*
X161707817Y-75364949D01*
X161698504Y-75360204D01*
X161647707Y-75312230D01*
X161630912Y-75244409D01*
X161653449Y-75178274D01*
X161698507Y-75139232D01*
X161707555Y-75134622D01*
X161761716Y-75095270D01*
X161761717Y-75095270D01*
X161129408Y-74462962D01*
X161192993Y-74445925D01*
X161307007Y-74380099D01*
X161400099Y-74287007D01*
X161465925Y-74172993D01*
X161482962Y-74109408D01*
X162115270Y-74741717D01*
X162115270Y-74741716D01*
X162154622Y-74687554D01*
X162251095Y-74498217D01*
X162316757Y-74296130D01*
X162316757Y-74296127D01*
X162350000Y-74086246D01*
X162350000Y-73873753D01*
X162316757Y-73663872D01*
X162316757Y-73663869D01*
X162251095Y-73461782D01*
X162154624Y-73272449D01*
X162115270Y-73218282D01*
X162115269Y-73218282D01*
X161482962Y-73850590D01*
X161465925Y-73787007D01*
X161400099Y-73672993D01*
X161307007Y-73579901D01*
X161192993Y-73514075D01*
X161129409Y-73497037D01*
X161761716Y-72864728D01*
X161707547Y-72825373D01*
X161707547Y-72825372D01*
X161698500Y-72820763D01*
X161647706Y-72772788D01*
X161630912Y-72704966D01*
X161653451Y-72638832D01*
X161698508Y-72599793D01*
X161707816Y-72595051D01*
X161787007Y-72537515D01*
X161879786Y-72470109D01*
X161879788Y-72470106D01*
X161879792Y-72470104D01*
X162030104Y-72319792D01*
X162030106Y-72319788D01*
X162030109Y-72319786D01*
X162155048Y-72147820D01*
X162155047Y-72147820D01*
X162155051Y-72147816D01*
X162251557Y-71958412D01*
X162317246Y-71756243D01*
X162350500Y-71546287D01*
X162350500Y-71333713D01*
X162317246Y-71123757D01*
X162251557Y-70921588D01*
X162155051Y-70732184D01*
X162155049Y-70732181D01*
X162155048Y-70732179D01*
X162030109Y-70560213D01*
X161879786Y-70409890D01*
X161707820Y-70284951D01*
X161707115Y-70284591D01*
X161699054Y-70280485D01*
X161648259Y-70232512D01*
X161631463Y-70164692D01*
X161653999Y-70098556D01*
X161699054Y-70059515D01*
X161707816Y-70055051D01*
X161748490Y-70025500D01*
X161879786Y-69930109D01*
X161879788Y-69930106D01*
X161879792Y-69930104D01*
X162030104Y-69779792D01*
X162030106Y-69779788D01*
X162030109Y-69779786D01*
X162155048Y-69607820D01*
X162155047Y-69607820D01*
X162155051Y-69607816D01*
X162251557Y-69418412D01*
X162317246Y-69216243D01*
X162350500Y-69006287D01*
X162350500Y-68793713D01*
X162317246Y-68583757D01*
X162251557Y-68381588D01*
X162155051Y-68192184D01*
X162155049Y-68192181D01*
X162155048Y-68192179D01*
X162030109Y-68020213D01*
X161879786Y-67869890D01*
X161707820Y-67744951D01*
X161707115Y-67744591D01*
X161699054Y-67740485D01*
X161648259Y-67692512D01*
X161631463Y-67624692D01*
X161653999Y-67558556D01*
X161699054Y-67519515D01*
X161707816Y-67515051D01*
X161792064Y-67453842D01*
X161879786Y-67390109D01*
X161879788Y-67390106D01*
X161879792Y-67390104D01*
X162030104Y-67239792D01*
X162030106Y-67239788D01*
X162030109Y-67239786D01*
X162155048Y-67067820D01*
X162155047Y-67067820D01*
X162155051Y-67067816D01*
X162251557Y-66878412D01*
X162317246Y-66676243D01*
X162350500Y-66466287D01*
X162350500Y-66253713D01*
X162317246Y-66043757D01*
X162251557Y-65841588D01*
X162155051Y-65652184D01*
X162155049Y-65652181D01*
X162155048Y-65652179D01*
X162030109Y-65480213D01*
X161879786Y-65329890D01*
X161707820Y-65204951D01*
X161699600Y-65200763D01*
X161699054Y-65200485D01*
X161648259Y-65152512D01*
X161631463Y-65084692D01*
X161653999Y-65018556D01*
X161699054Y-64979515D01*
X161707816Y-64975051D01*
X161782001Y-64921153D01*
X161879786Y-64850109D01*
X161879788Y-64850106D01*
X161879792Y-64850104D01*
X162030104Y-64699792D01*
X162030106Y-64699788D01*
X162030109Y-64699786D01*
X162155048Y-64527820D01*
X162155050Y-64527817D01*
X162155051Y-64527816D01*
X162251557Y-64338412D01*
X162317246Y-64136243D01*
X162350500Y-63926287D01*
X162350500Y-63713713D01*
X162317246Y-63503757D01*
X162251557Y-63301588D01*
X162155051Y-63112184D01*
X162155049Y-63112181D01*
X162155048Y-63112179D01*
X162030109Y-62940213D01*
X161879786Y-62789890D01*
X161707820Y-62664951D01*
X161707115Y-62664591D01*
X161699054Y-62660485D01*
X161648259Y-62612512D01*
X161631463Y-62544692D01*
X161653999Y-62478556D01*
X161699054Y-62439515D01*
X161707816Y-62435051D01*
X161749755Y-62404581D01*
X161879786Y-62310109D01*
X161879788Y-62310106D01*
X161879792Y-62310104D01*
X162030104Y-62159792D01*
X162030106Y-62159788D01*
X162030109Y-62159786D01*
X162155048Y-61987820D01*
X162155047Y-61987820D01*
X162155051Y-61987816D01*
X162251557Y-61798412D01*
X162317246Y-61596243D01*
X162350500Y-61386287D01*
X162350500Y-61173713D01*
X162317246Y-60963757D01*
X162251557Y-60761588D01*
X162155051Y-60572184D01*
X162155049Y-60572181D01*
X162155048Y-60572179D01*
X162030109Y-60400213D01*
X161879786Y-60249890D01*
X161707820Y-60124951D01*
X161701608Y-60121786D01*
X161699054Y-60120485D01*
X161648259Y-60072512D01*
X161631463Y-60004692D01*
X161653999Y-59938556D01*
X161699054Y-59899515D01*
X161707816Y-59895051D01*
X161813950Y-59817941D01*
X161879786Y-59770109D01*
X161879788Y-59770106D01*
X161879792Y-59770104D01*
X162030104Y-59619792D01*
X162030106Y-59619788D01*
X162030109Y-59619786D01*
X162155048Y-59447820D01*
X162155047Y-59447820D01*
X162155051Y-59447816D01*
X162251557Y-59258412D01*
X162317246Y-59056243D01*
X162350500Y-58846287D01*
X162350500Y-58633713D01*
X162317246Y-58423757D01*
X162251557Y-58221588D01*
X162155051Y-58032184D01*
X162155049Y-58032181D01*
X162155048Y-58032179D01*
X162030109Y-57860213D01*
X161879786Y-57709890D01*
X161707820Y-57584951D01*
X161707115Y-57584591D01*
X161699054Y-57580485D01*
X161648259Y-57532512D01*
X161631463Y-57464692D01*
X161653999Y-57398556D01*
X161699054Y-57359515D01*
X161707816Y-57355051D01*
X161729789Y-57339086D01*
X161879786Y-57230109D01*
X161879788Y-57230106D01*
X161879792Y-57230104D01*
X162030104Y-57079792D01*
X162030106Y-57079788D01*
X162030109Y-57079786D01*
X162155048Y-56907820D01*
X162155047Y-56907820D01*
X162155051Y-56907816D01*
X162251557Y-56718412D01*
X162317246Y-56516243D01*
X162350500Y-56306287D01*
X162350500Y-56093713D01*
X162317246Y-55883757D01*
X162251557Y-55681588D01*
X162155051Y-55492184D01*
X162155049Y-55492181D01*
X162155048Y-55492179D01*
X162030109Y-55320213D01*
X161879786Y-55169890D01*
X161707820Y-55044951D01*
X161707115Y-55044591D01*
X161699054Y-55040485D01*
X161648259Y-54992512D01*
X161631463Y-54924692D01*
X161653999Y-54858556D01*
X161699054Y-54819515D01*
X161707816Y-54815051D01*
X161729789Y-54799086D01*
X161879786Y-54690109D01*
X161879788Y-54690106D01*
X161879792Y-54690104D01*
X162030104Y-54539792D01*
X162030106Y-54539788D01*
X162030109Y-54539786D01*
X162155048Y-54367820D01*
X162155047Y-54367820D01*
X162155051Y-54367816D01*
X162251557Y-54178412D01*
X162317246Y-53976243D01*
X162350500Y-53766287D01*
X162350500Y-53553713D01*
X162317246Y-53343757D01*
X162251557Y-53141588D01*
X162155051Y-52952184D01*
X162155049Y-52952181D01*
X162155048Y-52952179D01*
X162030109Y-52780213D01*
X161879786Y-52629890D01*
X161707820Y-52504951D01*
X161707115Y-52504591D01*
X161699054Y-52500485D01*
X161648259Y-52452512D01*
X161631463Y-52384692D01*
X161653999Y-52318556D01*
X161699054Y-52279515D01*
X161707816Y-52275051D01*
X161729789Y-52259086D01*
X161879786Y-52150109D01*
X161879788Y-52150106D01*
X161879792Y-52150104D01*
X162030104Y-51999792D01*
X162030106Y-51999788D01*
X162030109Y-51999786D01*
X162155048Y-51827820D01*
X162155049Y-51827819D01*
X162155051Y-51827816D01*
X162251557Y-51638412D01*
X162317246Y-51436243D01*
X162350500Y-51226287D01*
X162350500Y-51013713D01*
X162317246Y-50803757D01*
X162251557Y-50601588D01*
X162155051Y-50412184D01*
X162155049Y-50412181D01*
X162155048Y-50412179D01*
X162030109Y-50240213D01*
X161879786Y-50089890D01*
X161707820Y-49964951D01*
X161707115Y-49964591D01*
X161699054Y-49960485D01*
X161648259Y-49912512D01*
X161631463Y-49844692D01*
X161653999Y-49778556D01*
X161699054Y-49739515D01*
X161707816Y-49735051D01*
X161762572Y-49695269D01*
X161879786Y-49610109D01*
X161879788Y-49610106D01*
X161879792Y-49610104D01*
X162030104Y-49459792D01*
X162030106Y-49459788D01*
X162030109Y-49459786D01*
X162155048Y-49287820D01*
X162155047Y-49287820D01*
X162155051Y-49287816D01*
X162251557Y-49098412D01*
X162317246Y-48896243D01*
X162350500Y-48686287D01*
X162350500Y-48473713D01*
X162317246Y-48263757D01*
X162251557Y-48061588D01*
X162155051Y-47872184D01*
X162155049Y-47872181D01*
X162155048Y-47872179D01*
X162030109Y-47700213D01*
X161879786Y-47549890D01*
X161707820Y-47424951D01*
X161699600Y-47420763D01*
X161699054Y-47420485D01*
X161648259Y-47372512D01*
X161631463Y-47304692D01*
X161653999Y-47238556D01*
X161699054Y-47199515D01*
X161707816Y-47195051D01*
X161729789Y-47179086D01*
X161879786Y-47070109D01*
X161879788Y-47070106D01*
X161879792Y-47070104D01*
X162030104Y-46919792D01*
X162030106Y-46919788D01*
X162030109Y-46919786D01*
X162155048Y-46747820D01*
X162155047Y-46747820D01*
X162155051Y-46747816D01*
X162251557Y-46558412D01*
X162317246Y-46356243D01*
X162350500Y-46146287D01*
X162350500Y-45933713D01*
X162317246Y-45723757D01*
X162251557Y-45521588D01*
X162155051Y-45332184D01*
X162155049Y-45332181D01*
X162155048Y-45332179D01*
X162030109Y-45160213D01*
X161916569Y-45046673D01*
X161883084Y-44985350D01*
X161888068Y-44915658D01*
X161929940Y-44859725D01*
X161960915Y-44842810D01*
X162092331Y-44793796D01*
X162207546Y-44707546D01*
X162293796Y-44592331D01*
X162344091Y-44457483D01*
X162350500Y-44397873D01*
X162350499Y-42602128D01*
X162344091Y-42542517D01*
X162293796Y-42407669D01*
X162293795Y-42407668D01*
X162293793Y-42407664D01*
X162207547Y-42292455D01*
X162207544Y-42292452D01*
X162092335Y-42206206D01*
X162092328Y-42206202D01*
X161957482Y-42155908D01*
X161957483Y-42155908D01*
X161897883Y-42149501D01*
X161897881Y-42149500D01*
X161897873Y-42149500D01*
X161897864Y-42149500D01*
X160102129Y-42149500D01*
X160102123Y-42149501D01*
X160042516Y-42155908D01*
X159907671Y-42206202D01*
X159907664Y-42206206D01*
X159792455Y-42292452D01*
X159792452Y-42292455D01*
X159706206Y-42407664D01*
X159706202Y-42407671D01*
X159655908Y-42542517D01*
X159650050Y-42597011D01*
X159649501Y-42602123D01*
X159649500Y-42602135D01*
X159649500Y-44397870D01*
X159649501Y-44397876D01*
X159655908Y-44457483D01*
X159706202Y-44592328D01*
X159706206Y-44592335D01*
X159792452Y-44707544D01*
X159792455Y-44707547D01*
X159907664Y-44793793D01*
X159907671Y-44793797D01*
X160039082Y-44842810D01*
X160095016Y-44884681D01*
X160119433Y-44950145D01*
X160104582Y-45018418D01*
X160083431Y-45046673D01*
X159969889Y-45160215D01*
X159844951Y-45332179D01*
X159748444Y-45521585D01*
X159682753Y-45723760D01*
X159649500Y-45933713D01*
X159649500Y-46146286D01*
X159682754Y-46356244D01*
X159682754Y-46356247D01*
X159696491Y-46398523D01*
X159698486Y-46468364D01*
X159666241Y-46524522D01*
X154034268Y-52156495D01*
X154034261Y-52156502D01*
X154031286Y-52159478D01*
X154031284Y-52159480D01*
X153919480Y-52271284D01*
X153896980Y-52310256D01*
X153890947Y-52320704D01*
X153890947Y-52320705D01*
X153842317Y-52404935D01*
X153840423Y-52408215D01*
X153799499Y-52560943D01*
X153799499Y-52560945D01*
X153799499Y-52729046D01*
X153799500Y-52729059D01*
X153799500Y-57074684D01*
X153790061Y-57122136D01*
X153730264Y-57266498D01*
X153730261Y-57266510D01*
X153699500Y-57421153D01*
X153699500Y-57578846D01*
X153730261Y-57733489D01*
X153730264Y-57733501D01*
X153790602Y-57879172D01*
X153790609Y-57879185D01*
X153878210Y-58010288D01*
X153878213Y-58010292D01*
X153989707Y-58121786D01*
X153989711Y-58121789D01*
X154120814Y-58209390D01*
X154120827Y-58209397D01*
X154266498Y-58269735D01*
X154266503Y-58269737D01*
X154421153Y-58300499D01*
X154421156Y-58300500D01*
X154421158Y-58300500D01*
X154578844Y-58300500D01*
X154578845Y-58300499D01*
X154733497Y-58269737D01*
X154879179Y-58209394D01*
X155010289Y-58121789D01*
X155121789Y-58010289D01*
X155209394Y-57879179D01*
X155269737Y-57733497D01*
X155300500Y-57578842D01*
X155300500Y-57421158D01*
X155300500Y-57421155D01*
X155300499Y-57421153D01*
X155296004Y-57398556D01*
X155269737Y-57266503D01*
X155254660Y-57230104D01*
X155209397Y-57120827D01*
X155209390Y-57120814D01*
X155121789Y-56989711D01*
X155121786Y-56989707D01*
X155036819Y-56904740D01*
X155003334Y-56843417D01*
X155000500Y-56817059D01*
X155000500Y-55345134D01*
X155020185Y-55278095D01*
X155072989Y-55232340D01*
X155142147Y-55222396D01*
X155171950Y-55230572D01*
X155266503Y-55269737D01*
X155331147Y-55282595D01*
X155421849Y-55300638D01*
X155483760Y-55333023D01*
X155485339Y-55334574D01*
X155665425Y-55514660D01*
X155698910Y-55575983D01*
X155699361Y-55578149D01*
X155730261Y-55733491D01*
X155730264Y-55733501D01*
X155790602Y-55879172D01*
X155790609Y-55879185D01*
X155878210Y-56010288D01*
X155878213Y-56010292D01*
X155989707Y-56121786D01*
X155989711Y-56121789D01*
X156120814Y-56209390D01*
X156120827Y-56209397D01*
X156250238Y-56263000D01*
X156266503Y-56269737D01*
X156421153Y-56300499D01*
X156421156Y-56300500D01*
X156421158Y-56300500D01*
X156578844Y-56300500D01*
X156578845Y-56300499D01*
X156733497Y-56269737D01*
X156879179Y-56209394D01*
X157010289Y-56121789D01*
X157121789Y-56010289D01*
X157155686Y-55959557D01*
X157209297Y-55914754D01*
X157278622Y-55906046D01*
X157327678Y-55925347D01*
X157355074Y-55943652D01*
X157355083Y-55943657D01*
X157355086Y-55943659D01*
X157355088Y-55943659D01*
X157355092Y-55943662D01*
X157500763Y-56004000D01*
X157500768Y-56004002D01*
X157655418Y-56034764D01*
X157655421Y-56034765D01*
X157775500Y-56034765D01*
X157842539Y-56054450D01*
X157888294Y-56107254D01*
X157899500Y-56158765D01*
X157899500Y-56920234D01*
X157879815Y-56987273D01*
X157878602Y-56989125D01*
X157790609Y-57120814D01*
X157790602Y-57120827D01*
X157730264Y-57266498D01*
X157730261Y-57266510D01*
X157699500Y-57421153D01*
X157699500Y-57578846D01*
X157730261Y-57733489D01*
X157730264Y-57733501D01*
X157790602Y-57879172D01*
X157790609Y-57879185D01*
X157878210Y-58010288D01*
X157878213Y-58010292D01*
X157989707Y-58121786D01*
X157989711Y-58121789D01*
X158120814Y-58209390D01*
X158120827Y-58209397D01*
X158266498Y-58269735D01*
X158266503Y-58269737D01*
X158421153Y-58300499D01*
X158421156Y-58300500D01*
X158421158Y-58300500D01*
X158578844Y-58300500D01*
X158578845Y-58300499D01*
X158733497Y-58269737D01*
X158879179Y-58209394D01*
X159010289Y-58121789D01*
X159121789Y-58010289D01*
X159209394Y-57879179D01*
X159269737Y-57733497D01*
X159300500Y-57578842D01*
X159300500Y-57421158D01*
X159300500Y-57421155D01*
X159300499Y-57421153D01*
X159296004Y-57398556D01*
X159269737Y-57266503D01*
X159254660Y-57230104D01*
X159209397Y-57120827D01*
X159209390Y-57120814D01*
X159121398Y-56989125D01*
X159100520Y-56922447D01*
X159100500Y-56920234D01*
X159100500Y-51380096D01*
X159120185Y-51313057D01*
X159136815Y-51292419D01*
X159437819Y-50991414D01*
X159499142Y-50957930D01*
X159568834Y-50962914D01*
X159624767Y-51004786D01*
X159649184Y-51070250D01*
X159649500Y-51079096D01*
X159649500Y-51226286D01*
X159681481Y-51428210D01*
X159682754Y-51436243D01*
X159705142Y-51505147D01*
X159748444Y-51638414D01*
X159844951Y-51827820D01*
X159969890Y-51999786D01*
X160120213Y-52150109D01*
X160292182Y-52275050D01*
X160300946Y-52279516D01*
X160351742Y-52327491D01*
X160368536Y-52395312D01*
X160345998Y-52461447D01*
X160300946Y-52500484D01*
X160292182Y-52504949D01*
X160120213Y-52629890D01*
X159969890Y-52780213D01*
X159844951Y-52952179D01*
X159748444Y-53141585D01*
X159682753Y-53343760D01*
X159649500Y-53553713D01*
X159649500Y-53766287D01*
X159659534Y-53829644D01*
X159675300Y-53929185D01*
X159682754Y-53976243D01*
X159732132Y-54128213D01*
X159748444Y-54178414D01*
X159844951Y-54367820D01*
X159969890Y-54539786D01*
X160120213Y-54690109D01*
X160292182Y-54815050D01*
X160300946Y-54819516D01*
X160351742Y-54867491D01*
X160368536Y-54935312D01*
X160345998Y-55001447D01*
X160300946Y-55040484D01*
X160292182Y-55044949D01*
X160120213Y-55169890D01*
X159969890Y-55320213D01*
X159844951Y-55492179D01*
X159748444Y-55681585D01*
X159682753Y-55883760D01*
X159655719Y-56054450D01*
X159649500Y-56093713D01*
X159649500Y-56306287D01*
X159682754Y-56516243D01*
X159684489Y-56521584D01*
X159748444Y-56718414D01*
X159844951Y-56907820D01*
X159969890Y-57079786D01*
X160120213Y-57230109D01*
X160292182Y-57355050D01*
X160300946Y-57359516D01*
X160351742Y-57407491D01*
X160368536Y-57475312D01*
X160345998Y-57541447D01*
X160300946Y-57580484D01*
X160292182Y-57584949D01*
X160120213Y-57709890D01*
X159969890Y-57860213D01*
X159844951Y-58032179D01*
X159748444Y-58221585D01*
X159682753Y-58423760D01*
X159649500Y-58633713D01*
X159649500Y-58846286D01*
X159682754Y-59056244D01*
X159682754Y-59056247D01*
X159696491Y-59098523D01*
X159698486Y-59168364D01*
X159666241Y-59224522D01*
X158098443Y-60792321D01*
X157986638Y-60904125D01*
X157986636Y-60904127D01*
X157962438Y-60946040D01*
X157952210Y-60963757D01*
X157907580Y-61041058D01*
X157866656Y-61193786D01*
X157866656Y-61193788D01*
X157866656Y-61361889D01*
X157866657Y-61361902D01*
X157866657Y-64167059D01*
X157846972Y-64234098D01*
X157830338Y-64254740D01*
X156415265Y-65669812D01*
X156353942Y-65703297D01*
X156284250Y-65698313D01*
X156228317Y-65656441D01*
X156222987Y-65648731D01*
X156217171Y-65639597D01*
X156209394Y-65620821D01*
X156121789Y-65489711D01*
X156121639Y-65489561D01*
X156119903Y-65486834D01*
X156110560Y-65454514D01*
X156100520Y-65422447D01*
X156100500Y-65420234D01*
X156100500Y-62589059D01*
X156100501Y-62589046D01*
X156100501Y-62546160D01*
X156102884Y-62521968D01*
X156105208Y-62510288D01*
X156110636Y-62482996D01*
X156126235Y-62404579D01*
X156126235Y-62246890D01*
X156126234Y-62246888D01*
X156113906Y-62184911D01*
X156095472Y-62092238D01*
X156052221Y-61987820D01*
X156035132Y-61946562D01*
X156035125Y-61946549D01*
X155947524Y-61815446D01*
X155947521Y-61815442D01*
X155836027Y-61703948D01*
X155836023Y-61703945D01*
X155704920Y-61616344D01*
X155704907Y-61616337D01*
X155559236Y-61555999D01*
X155559224Y-61555996D01*
X155404580Y-61525235D01*
X155404577Y-61525235D01*
X155246893Y-61525235D01*
X155246890Y-61525235D01*
X155092245Y-61555996D01*
X155092233Y-61555999D01*
X154946562Y-61616337D01*
X154946549Y-61616344D01*
X154815446Y-61703945D01*
X154815442Y-61703948D01*
X154703948Y-61815442D01*
X154703945Y-61815446D01*
X154616344Y-61946549D01*
X154616337Y-61946562D01*
X154555999Y-62092233D01*
X154555996Y-62092245D01*
X154525235Y-62246888D01*
X154525235Y-62404581D01*
X154555996Y-62559224D01*
X154555999Y-62559236D01*
X154616337Y-62704907D01*
X154616344Y-62704920D01*
X154703945Y-62836023D01*
X154703948Y-62836027D01*
X154815442Y-62947521D01*
X154815447Y-62947525D01*
X154844389Y-62966863D01*
X154889195Y-63020474D01*
X154899500Y-63069966D01*
X154899500Y-65420234D01*
X154879815Y-65487273D01*
X154878602Y-65489125D01*
X154790609Y-65620814D01*
X154790602Y-65620827D01*
X154730264Y-65766498D01*
X154730261Y-65766510D01*
X154699500Y-65921153D01*
X154699500Y-66078846D01*
X154730261Y-66233489D01*
X154730264Y-66233501D01*
X154790602Y-66379172D01*
X154790609Y-66379185D01*
X154878210Y-66510288D01*
X154878213Y-66510292D01*
X154989707Y-66621786D01*
X154989711Y-66621789D01*
X155120814Y-66709390D01*
X155120818Y-66709392D01*
X155120821Y-66709394D01*
X155129579Y-66713021D01*
X155183983Y-66756858D01*
X155206052Y-66823151D01*
X155188776Y-66890851D01*
X155169812Y-66915265D01*
X154221898Y-67863181D01*
X154160575Y-67896666D01*
X154134217Y-67899500D01*
X138649097Y-67899500D01*
X138582058Y-67879815D01*
X138536303Y-67827011D01*
X138526359Y-67757853D01*
X138555384Y-67694297D01*
X138561416Y-67687819D01*
X139009449Y-67239786D01*
X140368713Y-65880521D01*
X140368716Y-65880520D01*
X140480520Y-65768716D01*
X140530639Y-65681904D01*
X140559577Y-65631785D01*
X140600501Y-65479057D01*
X140600501Y-65320943D01*
X140600501Y-65313348D01*
X140600500Y-65313330D01*
X140600500Y-63921153D01*
X143199500Y-63921153D01*
X143199500Y-64078846D01*
X143230261Y-64233489D01*
X143230264Y-64233501D01*
X143290602Y-64379172D01*
X143290609Y-64379185D01*
X143378210Y-64510288D01*
X143378213Y-64510292D01*
X143489707Y-64621786D01*
X143489711Y-64621789D01*
X143620814Y-64709390D01*
X143620827Y-64709397D01*
X143716673Y-64749097D01*
X143766503Y-64769737D01*
X143921153Y-64800499D01*
X143921156Y-64800500D01*
X143921158Y-64800500D01*
X144078844Y-64800500D01*
X144078845Y-64800499D01*
X144233497Y-64769737D01*
X144379179Y-64709394D01*
X144420090Y-64682058D01*
X144510875Y-64621398D01*
X144577553Y-64600520D01*
X144579766Y-64600500D01*
X150420234Y-64600500D01*
X150487273Y-64620185D01*
X150489125Y-64621398D01*
X150620814Y-64709390D01*
X150620827Y-64709397D01*
X150716673Y-64749097D01*
X150766503Y-64769737D01*
X150921153Y-64800499D01*
X150921156Y-64800500D01*
X151075500Y-64800500D01*
X151142539Y-64820185D01*
X151188294Y-64872989D01*
X151199500Y-64924500D01*
X151199500Y-65078846D01*
X151230261Y-65233489D01*
X151230264Y-65233501D01*
X151290602Y-65379172D01*
X151290609Y-65379185D01*
X151378210Y-65510288D01*
X151378213Y-65510292D01*
X151489707Y-65621786D01*
X151489711Y-65621789D01*
X151620814Y-65709390D01*
X151620827Y-65709397D01*
X151758683Y-65766498D01*
X151766503Y-65769737D01*
X151921153Y-65800499D01*
X151921156Y-65800500D01*
X151921158Y-65800500D01*
X152078844Y-65800500D01*
X152078845Y-65800499D01*
X152233497Y-65769737D01*
X152379179Y-65709394D01*
X152510289Y-65621789D01*
X152621789Y-65510289D01*
X152709394Y-65379179D01*
X152769737Y-65233497D01*
X152800500Y-65078842D01*
X152800500Y-64921158D01*
X152800500Y-64921155D01*
X152800499Y-64921153D01*
X152769737Y-64766503D01*
X152762527Y-64749097D01*
X152709397Y-64620827D01*
X152709390Y-64620814D01*
X152621398Y-64489125D01*
X152600520Y-64422447D01*
X152600500Y-64420234D01*
X152600500Y-46589060D01*
X152600501Y-46589047D01*
X152600501Y-46420944D01*
X152583165Y-46356247D01*
X152559577Y-46268216D01*
X152525618Y-46209397D01*
X152480524Y-46131290D01*
X152480518Y-46131282D01*
X151834573Y-45485337D01*
X151801088Y-45424014D01*
X151800637Y-45421847D01*
X151769738Y-45266510D01*
X151769737Y-45266503D01*
X151769735Y-45266498D01*
X151709397Y-45120827D01*
X151709390Y-45120814D01*
X151621789Y-44989711D01*
X151621786Y-44989707D01*
X151510292Y-44878213D01*
X151510288Y-44878210D01*
X151379185Y-44790609D01*
X151379172Y-44790602D01*
X151233501Y-44730264D01*
X151233489Y-44730261D01*
X151078845Y-44699500D01*
X151078842Y-44699500D01*
X150921158Y-44699500D01*
X150921155Y-44699500D01*
X150766510Y-44730261D01*
X150766498Y-44730264D01*
X150620827Y-44790602D01*
X150620814Y-44790609D01*
X150489711Y-44878210D01*
X150489707Y-44878213D01*
X150378213Y-44989707D01*
X150378210Y-44989711D01*
X150290609Y-45120814D01*
X150290602Y-45120827D01*
X150230264Y-45266498D01*
X150230261Y-45266510D01*
X150199500Y-45421153D01*
X150199500Y-45578846D01*
X150230261Y-45733489D01*
X150230264Y-45733501D01*
X150290602Y-45879172D01*
X150290609Y-45879185D01*
X150378210Y-46010288D01*
X150378213Y-46010292D01*
X150489707Y-46121786D01*
X150489711Y-46121789D01*
X150620814Y-46209390D01*
X150620827Y-46209397D01*
X150762814Y-46268209D01*
X150766503Y-46269737D01*
X150831147Y-46282595D01*
X150921849Y-46300638D01*
X150983760Y-46333023D01*
X150985339Y-46334574D01*
X151363181Y-46712416D01*
X151396666Y-46773739D01*
X151399500Y-46800097D01*
X151399500Y-59750902D01*
X151379815Y-59817941D01*
X151327011Y-59863696D01*
X151257853Y-59873640D01*
X151194297Y-59844615D01*
X151187819Y-59838583D01*
X150834573Y-59485337D01*
X150801088Y-59424014D01*
X150800637Y-59421847D01*
X150769738Y-59266510D01*
X150769737Y-59266503D01*
X150769735Y-59266498D01*
X150709397Y-59120827D01*
X150709390Y-59120814D01*
X150621789Y-58989711D01*
X150621786Y-58989707D01*
X150510292Y-58878213D01*
X150510288Y-58878210D01*
X150379185Y-58790609D01*
X150379172Y-58790602D01*
X150233501Y-58730264D01*
X150233489Y-58730261D01*
X150078845Y-58699500D01*
X150078842Y-58699500D01*
X149921158Y-58699500D01*
X149921155Y-58699500D01*
X149766510Y-58730261D01*
X149766498Y-58730264D01*
X149620827Y-58790602D01*
X149620814Y-58790609D01*
X149489711Y-58878210D01*
X149489707Y-58878213D01*
X149378213Y-58989707D01*
X149378210Y-58989711D01*
X149290609Y-59120814D01*
X149290602Y-59120827D01*
X149230264Y-59266498D01*
X149230261Y-59266510D01*
X149199500Y-59421153D01*
X149199500Y-59578846D01*
X149230261Y-59733489D01*
X149230264Y-59733501D01*
X149290602Y-59879172D01*
X149290609Y-59879185D01*
X149378210Y-60010288D01*
X149378213Y-60010292D01*
X149489707Y-60121786D01*
X149489711Y-60121789D01*
X149620814Y-60209390D01*
X149620827Y-60209397D01*
X149718602Y-60249896D01*
X149766503Y-60269737D01*
X149831147Y-60282595D01*
X149921849Y-60300638D01*
X149983760Y-60333023D01*
X149985339Y-60334574D01*
X150363181Y-60712416D01*
X150396666Y-60773739D01*
X150399500Y-60800097D01*
X150399500Y-61420234D01*
X150379815Y-61487273D01*
X150378602Y-61489125D01*
X150290609Y-61620814D01*
X150290602Y-61620827D01*
X150230264Y-61766498D01*
X150230261Y-61766510D01*
X150199500Y-61921153D01*
X150199500Y-62078846D01*
X150230261Y-62233489D01*
X150230264Y-62233501D01*
X150290602Y-62379172D01*
X150290609Y-62379185D01*
X150378210Y-62510288D01*
X150378213Y-62510292D01*
X150489707Y-62621786D01*
X150489711Y-62621789D01*
X150620814Y-62709390D01*
X150620827Y-62709397D01*
X150763507Y-62768496D01*
X150766503Y-62769737D01*
X150910892Y-62798458D01*
X150921153Y-62800499D01*
X150921156Y-62800500D01*
X150921158Y-62800500D01*
X151078844Y-62800500D01*
X151078845Y-62800499D01*
X151233497Y-62769737D01*
X151233509Y-62769731D01*
X151239324Y-62767969D01*
X151240158Y-62770720D01*
X151260601Y-62768496D01*
X151293147Y-62763817D01*
X151295159Y-62764736D01*
X151297359Y-62764497D01*
X151326779Y-62779176D01*
X151356703Y-62792842D01*
X151357899Y-62794703D01*
X151359878Y-62795691D01*
X151376687Y-62823938D01*
X151394477Y-62851620D01*
X151394896Y-62854538D01*
X151395608Y-62855734D01*
X151399500Y-62886555D01*
X151399500Y-63113444D01*
X151379815Y-63180483D01*
X151327011Y-63226238D01*
X151257853Y-63236182D01*
X151239575Y-63231202D01*
X151239324Y-63232031D01*
X151233500Y-63230264D01*
X151233497Y-63230263D01*
X151233492Y-63230262D01*
X151233489Y-63230261D01*
X151078845Y-63199500D01*
X151078842Y-63199500D01*
X150921158Y-63199500D01*
X150921155Y-63199500D01*
X150766510Y-63230261D01*
X150766498Y-63230264D01*
X150620827Y-63290602D01*
X150620814Y-63290609D01*
X150489125Y-63378602D01*
X150422447Y-63399480D01*
X150420234Y-63399500D01*
X144579766Y-63399500D01*
X144512727Y-63379815D01*
X144510875Y-63378602D01*
X144379185Y-63290609D01*
X144379172Y-63290602D01*
X144233501Y-63230264D01*
X144233489Y-63230261D01*
X144078845Y-63199500D01*
X144078842Y-63199500D01*
X143921158Y-63199500D01*
X143921155Y-63199500D01*
X143766510Y-63230261D01*
X143766498Y-63230264D01*
X143620827Y-63290602D01*
X143620814Y-63290609D01*
X143489711Y-63378210D01*
X143489707Y-63378213D01*
X143378213Y-63489707D01*
X143378210Y-63489711D01*
X143290609Y-63620814D01*
X143290602Y-63620827D01*
X143230264Y-63766498D01*
X143230261Y-63766510D01*
X143199500Y-63921153D01*
X140600500Y-63921153D01*
X140600500Y-63579765D01*
X140620185Y-63512726D01*
X140621398Y-63510874D01*
X140626152Y-63503760D01*
X140709394Y-63379179D01*
X140769737Y-63233497D01*
X140800500Y-63078842D01*
X140800500Y-62921158D01*
X140800500Y-62921155D01*
X140800499Y-62921153D01*
X140783566Y-62836027D01*
X140769737Y-62766503D01*
X140768906Y-62764497D01*
X140709397Y-62620827D01*
X140709390Y-62620814D01*
X140621789Y-62489711D01*
X140621786Y-62489707D01*
X140510292Y-62378213D01*
X140510288Y-62378210D01*
X140379185Y-62290609D01*
X140379172Y-62290602D01*
X140233501Y-62230264D01*
X140233489Y-62230261D01*
X140078845Y-62199500D01*
X140078842Y-62199500D01*
X139921158Y-62199500D01*
X139921155Y-62199500D01*
X139766510Y-62230261D01*
X139766498Y-62230264D01*
X139620827Y-62290602D01*
X139620814Y-62290609D01*
X139568891Y-62325304D01*
X139502214Y-62346182D01*
X139434833Y-62327698D01*
X139431109Y-62325304D01*
X139379185Y-62290609D01*
X139379172Y-62290602D01*
X139233501Y-62230264D01*
X139233489Y-62230261D01*
X139078845Y-62199500D01*
X139078842Y-62199500D01*
X138921158Y-62199500D01*
X138921155Y-62199500D01*
X138766510Y-62230261D01*
X138766498Y-62230264D01*
X138620827Y-62290602D01*
X138620814Y-62290609D01*
X138489711Y-62378210D01*
X138489707Y-62378213D01*
X138378213Y-62489707D01*
X138378210Y-62489711D01*
X138290609Y-62620814D01*
X138290602Y-62620827D01*
X138239561Y-62744054D01*
X138195720Y-62798458D01*
X138129426Y-62820523D01*
X138061727Y-62803244D01*
X138014116Y-62752107D01*
X138010439Y-62744054D01*
X137959397Y-62620827D01*
X137959390Y-62620814D01*
X137871789Y-62489711D01*
X137871786Y-62489707D01*
X137760292Y-62378213D01*
X137760288Y-62378210D01*
X137629185Y-62290609D01*
X137629172Y-62290602D01*
X137483501Y-62230264D01*
X137483489Y-62230261D01*
X137328845Y-62199500D01*
X137328842Y-62199500D01*
X137171158Y-62199500D01*
X137122634Y-62209152D01*
X137053043Y-62202924D01*
X136997866Y-62160060D01*
X136991057Y-62149534D01*
X136980522Y-62131287D01*
X136980518Y-62131282D01*
X136834573Y-61985337D01*
X136801088Y-61924014D01*
X136800637Y-61921847D01*
X136779472Y-61815446D01*
X136769737Y-61766503D01*
X136769735Y-61766498D01*
X136709397Y-61620827D01*
X136709390Y-61620814D01*
X136621789Y-61489711D01*
X136621786Y-61489707D01*
X136510292Y-61378213D01*
X136510288Y-61378210D01*
X136379185Y-61290609D01*
X136379172Y-61290602D01*
X136233501Y-61230264D01*
X136233489Y-61230261D01*
X136078845Y-61199500D01*
X136078842Y-61199500D01*
X135921158Y-61199500D01*
X135921155Y-61199500D01*
X135766510Y-61230261D01*
X135766498Y-61230264D01*
X135620827Y-61290602D01*
X135620814Y-61290609D01*
X135489711Y-61378210D01*
X135489707Y-61378213D01*
X135378213Y-61489707D01*
X135378210Y-61489711D01*
X135290609Y-61620814D01*
X135290602Y-61620827D01*
X135230264Y-61766498D01*
X135230261Y-61766510D01*
X135199500Y-61921153D01*
X135199500Y-62078846D01*
X135230261Y-62233489D01*
X135230264Y-62233501D01*
X135290602Y-62379172D01*
X135290609Y-62379185D01*
X135378210Y-62510288D01*
X135378213Y-62510292D01*
X135489707Y-62621786D01*
X135489711Y-62621789D01*
X135620814Y-62709390D01*
X135620827Y-62709397D01*
X135704498Y-62744054D01*
X135766503Y-62769737D01*
X135799691Y-62776338D01*
X135861600Y-62808721D01*
X135896176Y-62869436D01*
X135899500Y-62897955D01*
X135899500Y-63496560D01*
X135879815Y-63563599D01*
X135827011Y-63609354D01*
X135757853Y-63619298D01*
X135694297Y-63590273D01*
X135672398Y-63565451D01*
X135621789Y-63489711D01*
X135621786Y-63489707D01*
X135510292Y-63378213D01*
X135510288Y-63378210D01*
X135379185Y-63290609D01*
X135379172Y-63290602D01*
X135233501Y-63230264D01*
X135233489Y-63230261D01*
X135078845Y-63199500D01*
X135078842Y-63199500D01*
X134921158Y-63199500D01*
X134921155Y-63199500D01*
X134766510Y-63230261D01*
X134766498Y-63230264D01*
X134620827Y-63290602D01*
X134620814Y-63290609D01*
X134489125Y-63378602D01*
X134422447Y-63399480D01*
X134420234Y-63399500D01*
X131365783Y-63399500D01*
X131298744Y-63379815D01*
X131278102Y-63363181D01*
X129636819Y-61721898D01*
X129603334Y-61660575D01*
X129600500Y-61634217D01*
X129600500Y-54182940D01*
X129620185Y-54115901D01*
X129636820Y-54095258D01*
X129671786Y-54060292D01*
X129671789Y-54060289D01*
X129759394Y-53929179D01*
X129819737Y-53783497D01*
X129850500Y-53628842D01*
X129850500Y-53471158D01*
X129850500Y-53471155D01*
X129850499Y-53471153D01*
X129819737Y-53316503D01*
X129786805Y-53236997D01*
X129759397Y-53170827D01*
X129759390Y-53170814D01*
X129671789Y-53039711D01*
X129671786Y-53039707D01*
X129560292Y-52928213D01*
X129560288Y-52928210D01*
X129429185Y-52840609D01*
X129429172Y-52840602D01*
X129283501Y-52780264D01*
X129283491Y-52780261D01*
X129234374Y-52770491D01*
X129172463Y-52738106D01*
X129137889Y-52677389D01*
X129141630Y-52607620D01*
X129168296Y-52565304D01*
X129167924Y-52564999D01*
X129170357Y-52562033D01*
X129170891Y-52561186D01*
X129171789Y-52560289D01*
X129259394Y-52429179D01*
X129319737Y-52283497D01*
X129350500Y-52128842D01*
X129350500Y-51971158D01*
X129350500Y-51971155D01*
X129350499Y-51971153D01*
X129319738Y-51816510D01*
X129319737Y-51816503D01*
X129319735Y-51816498D01*
X129259397Y-51670827D01*
X129259390Y-51670814D01*
X129171789Y-51539711D01*
X129171786Y-51539707D01*
X129060292Y-51428213D01*
X129060288Y-51428210D01*
X128929185Y-51340609D01*
X128929172Y-51340602D01*
X128783501Y-51280264D01*
X128783489Y-51280261D01*
X128628845Y-51249500D01*
X128628842Y-51249500D01*
X128471158Y-51249500D01*
X128471155Y-51249500D01*
X128316510Y-51280261D01*
X128316498Y-51280264D01*
X128170827Y-51340602D01*
X128170814Y-51340609D01*
X128039711Y-51428210D01*
X128039707Y-51428213D01*
X127996259Y-51471662D01*
X127934936Y-51505147D01*
X127865244Y-51500163D01*
X127820897Y-51471662D01*
X126636819Y-50287584D01*
X126603334Y-50226261D01*
X126600500Y-50199903D01*
X126600500Y-49579765D01*
X126620185Y-49512726D01*
X126621398Y-49510874D01*
X126709390Y-49379185D01*
X126709390Y-49379184D01*
X126709394Y-49379179D01*
X126769737Y-49233497D01*
X126800500Y-49078842D01*
X126800500Y-48921158D01*
X126800500Y-48921155D01*
X126800499Y-48921153D01*
X126791028Y-48873539D01*
X126769737Y-48766503D01*
X126769732Y-48766492D01*
X126767969Y-48760676D01*
X126770720Y-48759841D01*
X126764497Y-48702641D01*
X126795691Y-48640122D01*
X126855734Y-48604392D01*
X126886555Y-48600500D01*
X127510233Y-48600500D01*
X127577272Y-48620185D01*
X127579124Y-48621398D01*
X127644498Y-48665080D01*
X127644511Y-48665087D01*
X127781082Y-48721656D01*
X127781087Y-48721658D01*
X127781091Y-48721658D01*
X127781092Y-48721659D01*
X127926079Y-48750500D01*
X127926082Y-48750500D01*
X128073920Y-48750500D01*
X128171462Y-48731096D01*
X128218913Y-48721658D01*
X128355495Y-48665084D01*
X128478416Y-48582951D01*
X128582951Y-48478416D01*
X128665084Y-48355495D01*
X128721658Y-48218913D01*
X128742512Y-48114075D01*
X128750500Y-48073920D01*
X128750500Y-47926079D01*
X128721659Y-47781092D01*
X128721658Y-47781091D01*
X128721658Y-47781087D01*
X128688157Y-47700208D01*
X128665087Y-47644511D01*
X128665080Y-47644498D01*
X128582951Y-47521584D01*
X128582948Y-47521580D01*
X128478419Y-47417051D01*
X128478415Y-47417048D01*
X128355501Y-47334919D01*
X128355488Y-47334912D01*
X128218917Y-47278343D01*
X128218907Y-47278340D01*
X128073920Y-47249500D01*
X128073918Y-47249500D01*
X127926082Y-47249500D01*
X127926080Y-47249500D01*
X127781092Y-47278340D01*
X127781082Y-47278343D01*
X127644511Y-47334912D01*
X127644498Y-47334919D01*
X127579124Y-47378602D01*
X127512447Y-47399480D01*
X127510233Y-47399500D01*
X126238140Y-47399500D01*
X126238124Y-47399499D01*
X126230528Y-47399499D01*
X126072414Y-47399499D01*
X125965058Y-47428265D01*
X125919681Y-47440424D01*
X125919680Y-47440425D01*
X125869567Y-47469359D01*
X125869566Y-47469360D01*
X125826160Y-47494420D01*
X125782756Y-47519479D01*
X125782753Y-47519481D01*
X124462181Y-48840054D01*
X124400858Y-48873539D01*
X124331166Y-48868555D01*
X124275233Y-48826683D01*
X124250816Y-48761219D01*
X124250500Y-48752373D01*
X124250500Y-45426079D01*
X124221659Y-45281092D01*
X124221658Y-45281091D01*
X124221658Y-45281087D01*
X124215615Y-45266498D01*
X124165087Y-45144511D01*
X124165080Y-45144498D01*
X124082952Y-45021585D01*
X124046717Y-44985350D01*
X123978416Y-44917049D01*
X121978416Y-42917048D01*
X121978415Y-42917047D01*
X121971348Y-42909980D01*
X121971347Y-42909980D01*
X121898415Y-42837047D01*
X121898414Y-42837046D01*
X121824729Y-42787812D01*
X121824729Y-42787813D01*
X121775491Y-42754913D01*
X121638917Y-42698343D01*
X121638907Y-42698340D01*
X121493920Y-42669500D01*
X121493918Y-42669500D01*
X118469126Y-42669500D01*
X118402087Y-42649815D01*
X118356332Y-42597011D01*
X118345836Y-42558751D01*
X118344091Y-42542516D01*
X118293797Y-42407671D01*
X118293793Y-42407664D01*
X118207547Y-42292455D01*
X118207544Y-42292452D01*
X118092335Y-42206206D01*
X118092328Y-42206202D01*
X117957482Y-42155908D01*
X117957483Y-42155908D01*
X117897883Y-42149501D01*
X117897881Y-42149500D01*
X117897873Y-42149500D01*
X117897864Y-42149500D01*
X116102129Y-42149500D01*
X116102123Y-42149501D01*
X116042516Y-42155908D01*
X115907671Y-42206202D01*
X115907664Y-42206206D01*
X115792455Y-42292452D01*
X115792452Y-42292455D01*
X115706206Y-42407664D01*
X115706202Y-42407671D01*
X115655908Y-42542517D01*
X115650050Y-42597011D01*
X115649501Y-42602123D01*
X115649500Y-42602135D01*
X114500500Y-42602135D01*
X114500500Y-41624500D01*
X114520185Y-41557461D01*
X114572989Y-41511706D01*
X114624500Y-41500500D01*
X163375500Y-41500500D01*
X163442539Y-41520185D01*
G37*
%TD.AperFunction*%
%TD*%
M02*
