M48
; DRILL file {KiCad 9.0.8} date 2026-04-02T18:25:57+0100
; FORMAT={-:-/ absolute / metric / decimal}
; #@! TF.CreationDate,2026-04-02T18:25:57+01:00
; #@! TF.GenerationSoftware,Kicad,Pcbnew,9.0.8
; #@! TF.FileFunction,Plated,1,2,PTH
FMAT,2
METRIC
; #@! TA.AperFunction,Plated,PTH,ComponentDrill
T1C0.200
; #@! TA.AperFunction,Plated,PTH,ViaDrill
T2C0.300
; #@! TA.AperFunction,Plated,PTH,ComponentDrill
T3C0.600
; #@! TA.AperFunction,Plated,PTH,ComponentDrill
T4C1.000
%
G90
G05
T1
X136.2Y-49.9
X136.2Y-51.3
X136.9Y-49.2
X136.9Y-50.6
X136.9Y-52.0
X137.6Y-49.9
X137.6Y-51.3
X138.3Y-49.2
X138.3Y-50.6
X138.3Y-52.0
X139.0Y-49.9
X139.0Y-51.3
T2
X119.5Y-47.0
X121.0Y-63.74
X121.5Y-47.0
X121.5Y-57.0
X121.5Y-60.0
X121.5Y-61.5
X121.5Y-67.5
X122.5Y-49.5
X122.5Y-57.0
X122.75Y-54.75
X123.5Y-49.0
X123.5Y-80.0
X124.5Y-43.5
X126.0Y-49.0
X126.0Y-51.5
X126.0Y-52.5
X126.0Y-69.5
X126.0Y-88.5
X126.5Y-43.0
X126.5Y-64.0
X127.0Y-68.0
X127.0Y-85.5
X127.45Y-57.0
X128.0Y-48.0
X128.5Y-78.0
X128.55Y-52.05
X129.05Y-53.55
X129.75Y-86.75
X130.0Y-100.5
X130.25Y-79.75
X131.5Y-94.5
X131.75Y-84.75
X132.25Y-79.75
X133.0Y-79.0
X133.125Y-67.375
X133.963Y-67.365
X135.0Y-56.0
X135.0Y-64.0
X135.5Y-66.0
X135.585Y-64.737
X135.716Y-67.743
X135.75Y-70.0
X136.0Y-44.5
X136.0Y-62.0
X136.0Y-76.5
X136.0Y-83.5
X136.5Y-67.9
X137.25Y-63.0
X137.5Y-67.9
X138.0Y-90.5
X139.0Y-63.0
X139.0Y-85.5
X139.5Y-67.5
X139.5Y-75.0
X139.5Y-79.5
X139.5Y-83.0
X140.0Y-63.0
X140.0Y-90.0
X141.5Y-73.0
X142.0Y-44.5
X142.0Y-56.0
X142.0Y-67.5
X142.0Y-82.5
X144.0Y-64.0
X146.0Y-94.0
X146.5Y-72.5
X146.5Y-83.0
X146.5Y-89.0
X146.5Y-100.5
X147.5Y-77.0
X150.0Y-59.5
X151.0Y-45.5
X151.0Y-62.0
X151.0Y-64.0
X151.5Y-89.0
X152.0Y-65.0
X152.0Y-75.0
X153.5Y-44.0
X154.0Y-75.0
X154.5Y-57.5
X154.5Y-100.5
X155.0Y-53.0
X155.326Y-62.326
X155.5Y-44.0
X155.5Y-54.5
X155.5Y-66.0
X156.5Y-55.5
X157.5Y-44.5
X157.5Y-75.5
X157.734Y-55.234
X158.5Y-57.5
X158.5Y-93.0
X158.5Y-98.5
X159.0Y-88.5
X161.5Y-91.0
X161.5Y-96.0
T4
X117.0Y-43.5
X117.0Y-46.04
X117.0Y-48.58
X117.0Y-51.12
X117.0Y-53.66
X117.0Y-56.2
X117.0Y-58.74
X117.0Y-61.28
X117.0Y-63.82
X117.0Y-66.36
X117.0Y-68.9
X117.0Y-71.44
X117.0Y-73.98
X117.0Y-76.52
X117.0Y-79.06
X161.0Y-43.5
X161.0Y-46.04
X161.0Y-48.58
X161.0Y-51.12
X161.0Y-53.66
X161.0Y-56.2
X161.0Y-58.74
X161.0Y-61.28
X161.0Y-63.82
X161.0Y-66.36
X161.0Y-68.9
X161.0Y-71.44
X161.0Y-73.98
X161.0Y-76.52
X161.0Y-79.06
T3
G00X134.68Y-94.345
M15
G01X134.68Y-95.445
M16
G05
G00X134.68Y-98.775
M15
G01X134.68Y-99.375
M16
G05
G00X143.32Y-94.345
M15
G01X143.32Y-95.445
M16
G05
G00X143.32Y-98.775
M15
G01X143.32Y-99.375
M16
G05
M30
