%TF.GenerationSoftware,KiCad,Pcbnew,9.0.8*%
%TF.CreationDate,2026-04-02T18:25:13+01:00*%
%TF.ProjectId,ESP32_Falcon,45535033-325f-4466-916c-636f6e2e6b69,rev?*%
%TF.SameCoordinates,Original*%
%TF.FileFunction,Paste,Top*%
%TF.FilePolarity,Positive*%
%FSLAX46Y46*%
G04 Gerber Fmt 4.6, Leading zero omitted, Abs format (unit mm)*
G04 Created by KiCad (PCBNEW 9.0.8) date 2026-04-02 18:25:13*
%MOMM*%
%LPD*%
G01*
G04 APERTURE LIST*
G04 Aperture macros list*
%AMRoundRect*
0 Rectangle with rounded corners*
0 $1 Rounding radius*
0 $2 $3 $4 $5 $6 $7 $8 $9 X,Y pos of 4 corners*
0 Add a 4 corners polygon primitive as box body*
4,1,4,$2,$3,$4,$5,$6,$7,$8,$9,$2,$3,0*
0 Add four circle primitives for the rounded corners*
1,1,$1+$1,$2,$3*
1,1,$1+$1,$4,$5*
1,1,$1+$1,$6,$7*
1,1,$1+$1,$8,$9*
0 Add four rect primitives between the rounded corners*
20,1,$1+$1,$2,$3,$4,$5,0*
20,1,$1+$1,$4,$5,$6,$7,0*
20,1,$1+$1,$6,$7,$8,$9,0*
20,1,$1+$1,$8,$9,$2,$3,0*%
G04 Aperture macros list end*
%ADD10RoundRect,0.150000X0.150000X-0.512500X0.150000X0.512500X-0.150000X0.512500X-0.150000X-0.512500X0*%
%ADD11RoundRect,0.250001X-0.624999X0.462499X-0.624999X-0.462499X0.624999X-0.462499X0.624999X0.462499X0*%
%ADD12R,0.300000X1.150000*%
%ADD13RoundRect,0.250000X-0.475000X0.337500X-0.475000X-0.337500X0.475000X-0.337500X0.475000X0.337500X0*%
%ADD14R,0.900000X0.900000*%
%ADD15R,1.500000X0.900000*%
%ADD16R,0.900000X1.500000*%
%ADD17RoundRect,0.250000X0.350000X0.450000X-0.350000X0.450000X-0.350000X-0.450000X0.350000X-0.450000X0*%
%ADD18RoundRect,0.500000X-0.500000X0.500000X-0.500000X-0.500000X0.500000X-0.500000X0.500000X0.500000X0*%
%ADD19RoundRect,0.250000X0.450000X-0.350000X0.450000X0.350000X-0.450000X0.350000X-0.450000X-0.350000X0*%
%ADD20RoundRect,0.500000X0.500000X-0.500000X0.500000X0.500000X-0.500000X0.500000X-0.500000X-0.500000X0*%
%ADD21RoundRect,0.250000X-0.350000X-0.450000X0.350000X-0.450000X0.350000X0.450000X-0.350000X0.450000X0*%
%ADD22RoundRect,0.250000X-0.450000X0.350000X-0.450000X-0.350000X0.450000X-0.350000X0.450000X0.350000X0*%
%ADD23RoundRect,0.250000X0.475000X-0.337500X0.475000X0.337500X-0.475000X0.337500X-0.475000X-0.337500X0*%
%ADD24RoundRect,0.375000X-0.625000X-0.375000X0.625000X-0.375000X0.625000X0.375000X-0.625000X0.375000X0*%
%ADD25RoundRect,0.500000X-0.500000X-1.400000X0.500000X-1.400000X0.500000X1.400000X-0.500000X1.400000X0*%
%ADD26RoundRect,0.250000X-0.325000X-0.450000X0.325000X-0.450000X0.325000X0.450000X-0.325000X0.450000X0*%
%ADD27RoundRect,0.250000X0.337500X0.475000X-0.337500X0.475000X-0.337500X-0.475000X0.337500X-0.475000X0*%
%ADD28RoundRect,0.250000X-0.337500X-0.475000X0.337500X-0.475000X0.337500X0.475000X-0.337500X0.475000X0*%
%ADD29R,0.482600X0.254000*%
%ADD30R,0.254000X0.482600*%
%ADD31RoundRect,0.250000X0.450000X-0.325000X0.450000X0.325000X-0.450000X0.325000X-0.450000X-0.325000X0*%
%ADD32RoundRect,0.250000X0.350000X-0.275000X0.350000X0.275000X-0.350000X0.275000X-0.350000X-0.275000X0*%
G04 APERTURE END LIST*
D10*
%TO.C,U2*%
X141050000Y-88275000D03*
X142000000Y-88275000D03*
X142950000Y-88275000D03*
X142950000Y-86000000D03*
X142000000Y-86000000D03*
X141050000Y-86000000D03*
%TD*%
D11*
%TO.C,F2*%
X136000000Y-87500000D03*
X136000000Y-90475000D03*
%TD*%
D12*
%TO.C,J1*%
X135650000Y-94330000D03*
X136450000Y-94330000D03*
X137750000Y-94330000D03*
X138750000Y-94330000D03*
X139250000Y-94330000D03*
X140250000Y-94330000D03*
X141550000Y-94330000D03*
X142350000Y-94330000D03*
X142050000Y-94330000D03*
X141250000Y-94330000D03*
X140750000Y-94330000D03*
X139750000Y-94330000D03*
X138250000Y-94330000D03*
X137250000Y-94330000D03*
X136750000Y-94330000D03*
X135950000Y-94330000D03*
%TD*%
D13*
%TO.C,C3*%
X139000000Y-69962500D03*
X139000000Y-72037500D03*
%TD*%
D14*
%TO.C,U1*%
X136200000Y-49200000D03*
X136200000Y-50600000D03*
X136200000Y-52000000D03*
X137600000Y-49200000D03*
X137600000Y-50600000D03*
X137600000Y-52000000D03*
X139000000Y-49200000D03*
X139000000Y-50600000D03*
X139000000Y-52000000D03*
D15*
X130350000Y-42880000D03*
X130350000Y-44150000D03*
X130350000Y-45420000D03*
X130350000Y-46690000D03*
X130350000Y-47960000D03*
X130350000Y-49230000D03*
X130350000Y-50500000D03*
X130350000Y-51770000D03*
X130350000Y-53040000D03*
X130350000Y-54310000D03*
X130350000Y-55580000D03*
X130350000Y-56850000D03*
X130350000Y-58120000D03*
X130350000Y-59390000D03*
D16*
X132115000Y-60640000D03*
X133385000Y-60640000D03*
X134655000Y-60640000D03*
X135925000Y-60640000D03*
X137195000Y-60640000D03*
X138465000Y-60640000D03*
X139735000Y-60640000D03*
X141005000Y-60640000D03*
X142275000Y-60640000D03*
X143545000Y-60640000D03*
X144815000Y-60640000D03*
X146085000Y-60640000D03*
D15*
X147850000Y-59390000D03*
X147850000Y-58120000D03*
X147850000Y-56850000D03*
X147850000Y-55580000D03*
X147850000Y-54310000D03*
X147850000Y-53040000D03*
X147850000Y-51770000D03*
X147850000Y-50500000D03*
X147850000Y-49230000D03*
X147850000Y-47960000D03*
X147850000Y-46690000D03*
X147850000Y-45420000D03*
X147850000Y-44150000D03*
X147850000Y-42880000D03*
%TD*%
D17*
%TO.C,R3*%
X129500000Y-90500000D03*
X127500000Y-90500000D03*
%TD*%
D18*
%TO.C,USER_BUTTON1*%
X152000000Y-77500000D03*
X152000000Y-83500000D03*
%TD*%
D19*
%TO.C,R4*%
X153500000Y-67500000D03*
X153500000Y-65500000D03*
%TD*%
D20*
%TO.C,BOOT1*%
X151500000Y-100000000D03*
X151500000Y-94000000D03*
%TD*%
D19*
%TO.C,R9*%
X150000000Y-67500000D03*
X150000000Y-65500000D03*
%TD*%
D21*
%TO.C,R6*%
X148000000Y-90500000D03*
X150000000Y-90500000D03*
%TD*%
D22*
%TO.C,R1*%
X142000000Y-79000000D03*
X142000000Y-81000000D03*
%TD*%
D23*
%TO.C,C2_tantalum*%
X123000000Y-75037500D03*
X123000000Y-72962500D03*
%TD*%
D19*
%TO.C,R7*%
X143500000Y-67500000D03*
X143500000Y-65500000D03*
%TD*%
D24*
%TO.C,U3*%
X126962500Y-71400000D03*
X126962500Y-73700000D03*
D25*
X133262500Y-73700000D03*
D24*
X126962500Y-76000000D03*
%TD*%
D26*
%TO.C,D2*%
X151475000Y-72000000D03*
X153525000Y-72000000D03*
%TD*%
D20*
%TO.C,EN1*%
X127000000Y-100000000D03*
X127000000Y-94000000D03*
%TD*%
D22*
%TO.C,R2*%
X145000000Y-79000000D03*
X145000000Y-81000000D03*
%TD*%
D27*
%TO.C,C4*%
X124500000Y-92000000D03*
X122425000Y-92000000D03*
%TD*%
%TO.C,C3_tantalum*%
X132000000Y-68000000D03*
X129925000Y-68000000D03*
%TD*%
D28*
%TO.C,C2*%
X142962500Y-75000000D03*
X145037500Y-75000000D03*
%TD*%
D29*
%TO.C,U4*%
X142793500Y-70249999D03*
X142793500Y-70750000D03*
X142793500Y-71250000D03*
X142793500Y-71750001D03*
D30*
X143500001Y-71952500D03*
X144000000Y-71952500D03*
X144499999Y-71952500D03*
D29*
X145206500Y-71750001D03*
X145206500Y-71250000D03*
X145206500Y-70750000D03*
X145206500Y-70249999D03*
D30*
X144499999Y-70047500D03*
X144000000Y-70047500D03*
X143500001Y-70047500D03*
%TD*%
D19*
%TO.C,R8*%
X146500000Y-67500000D03*
X146500000Y-65500000D03*
%TD*%
D22*
%TO.C,R5*%
X133000000Y-81000000D03*
X133000000Y-83000000D03*
%TD*%
D31*
%TO.C,D1*%
X129500000Y-83025000D03*
X129500000Y-80975000D03*
%TD*%
D32*
%TO.C,FB2*%
X133000000Y-90150000D03*
X133000000Y-87850000D03*
%TD*%
M02*
